<?xml version="1.0" encoding="utf-8"?>
<!-- Generator: Adobe Illustrator 22.0.1, SVG Export Plug-In . SVG Version: 6.00 Build 0)  -->
<svg version="1.1" id="Слой_1" xmlns="http://www.w3.org/2000/svg" xmlns:xlink="http://www.w3.org/1999/xlink" x="0px" y="0px"
	 viewBox="0 0 1500 1050" style="enable-background:new 0 0 1500 1050;" xml:space="preserve">
<style type="text/css">
	.st0{fill:#EDEDED;}
	.st1{fill:#D57326;}
	.st2{fill:#B1B7C3;}
	.st3{fill:#FFFFFF;}
	.st4{fill:url(#SVGID_1_);}
	.st5{fill:url(#SVGID_2_);}
	.st6{opacity:0.1;}
	.st7{clip-path:url(#SVGID_4_);fill:#B1B7C3;}
	.st8{fill:#848DA6;}
	.st9{fill:#3F495A;}
	.st10{fill:#FAF9F7;}
	.st11{fill:url(#SVGID_5_);}
	.st12{fill:url(#SVGID_6_);}
	.st13{fill:url(#SVGID_7_);}
	.st14{fill:#F9F9F9;}
	.st15{fill:url(#SVGID_8_);}
	.st16{fill:#3E4959;}
	.st17{fill:#1B2552;}
	.st18{fill:#D49A35;}
	.st19{fill:#E9BF32;}
	.st20{fill:#E5AC46;}
	.st21{fill:#E7AD49;}
	.st22{fill:#EDD437;}
	.st23{fill:#AC7574;}
	.st24{fill:#B07479;}
	.st25{fill:#C8C3C0;}
	.st26{fill:#ADA6A6;}
	.st27{fill:url(#SVGID_9_);}
	.st28{fill:#E49FA0;}
	.st29{fill:#525782;}
	.st30{fill:#241138;}
	.st31{fill:#CBDFF7;}
	.st32{fill:#353E71;}
	.st33{fill:#AFB3CF;}
</style>
<g>
	<rect x="-17" y="-7" class="st0" width="1534.1" height="1064"/>
	
		<rect x="245.9" y="452.3" transform="matrix(0.8492 0.528 -0.528 0.8492 290.7297 -111.496)" class="st1" width="189.3" height="2"/>
	<path class="st1" d="M72,407.1l187.7-116.9l-1-1.6L70.3,406C71,406.2,71.6,406.6,72,407.1z"/>
	<path class="st1" d="M163.7,464.3c0.3,0.1,0.5,0.2,0.8,0.4l96.7-60.2c-0.6-0.3-1.1-0.7-1.6-1.2l-96.8,60.3
		C163.1,463.7,163.4,464,163.7,464.3z"/>
	<path class="st1" d="M164.9,464.6c0.1-0.1,0.2-0.1,0.3-0.2c0.3-0.3,0.7-0.6,1.1-0.9c0,0,0.1,0,0.1,0L72,404.9l-1.9,1.2l94.5,58.8
		C164.7,464.7,164.8,464.7,164.9,464.6z"/>
	<path class="st1" d="M138.9,926.2c0.7,0,1.4,0.1,1.9,0.4l146.1-91l-1-1.6l-148.1,92.2C138.2,926.2,138.5,926.2,138.9,926.2z"/>
	<path class="st1" d="M428.3,923.9L616,807l-1-1.6L426.6,922.8C427.3,923,427.9,923.4,428.3,923.9z"/>
	<path class="st1" d="M285.5,834.3c-0.6,0.5-1.2,0.8-1.9,1l143.8,88.6c0.5-0.5,1-0.9,1.7-1.1L285.5,834.3z"/>
	<path class="st1" d="M947.1,492.2l187.7-116.9l-1-1.6L945.4,491.1C946.1,491.3,946.6,491.7,947.1,492.2z"/>
	<path class="st1" d="M1274.5,462l-141.8-88.4l-1,1.6l141,87.9C1273.2,462.6,1273.8,462.3,1274.5,462z"/>
	<path class="st1" d="M1403.4,380l-131.2,81.7c0.7,0.2,1.3,0.6,1.7,1.1l130.2-81.2C1403.8,381.1,1403.5,380.6,1403.4,380z"/>
	<path class="st2" d="M1137.4,865.2l-441.4,43.9c0,0-65.9,0-140.5-43.9l-166.9-94.4c0,0-52.7-11-26.4-92.2
		c26.4-81.2,72.5-208.6,72.5-208.6s6.6-35.1,74.7-43.9S920,384.3,920,384.3s43.9-15.4,105.4,28.5L1229.7,538c0,0,50.5,30.3,22,107.4
		C1251.6,645.4,1212.7,857.7,1137.4,865.2z"/>
	<path class="st3" d="M1137.4,857l-441.4,43.9c0,0-65.9,0-140.5-43.9l-166.9-94.4c0,0-52.7-11-26.4-92.2
		c26.4-81.2,72.5-208.6,72.5-208.6s6.6-35.1,74.7-43.9S920,376.1,920,376.1s43.9-15.4,105.4,28.5l204.2,125.2
		c0,0,50.5,30.3,22,107.4C1251.6,637.2,1212.7,849.5,1137.4,857z"/>
	
		<radialGradient id="SVGID_1_" cx="419.4155" cy="479.6643" r="113.3879" gradientTransform="matrix(1 0 0 0.5308 0 225.0513)" gradientUnits="userSpaceOnUse">
		<stop  offset="0.3335" style="stop-color:#5BA0D0"/>
		<stop  offset="1" style="stop-color:#EDEDED;stop-opacity:0"/>
	</radialGradient>
	<ellipse class="st4" cx="419.4" cy="479.7" rx="140.6" ry="77"/>
	
		<radialGradient id="SVGID_2_" cx="1198.808" cy="708.9462" r="113.3879" gradientTransform="matrix(1 0 0 0.5308 0 332.627)" gradientUnits="userSpaceOnUse">
		<stop  offset="0.3335" style="stop-color:#5BA0D0"/>
		<stop  offset="1" style="stop-color:#EDEDED;stop-opacity:0"/>
	</radialGradient>
	<ellipse class="st5" cx="1198.8" cy="708.9" rx="140.6" ry="77"/>
	<g class="st6">
		<defs>
			<path id="SVGID_3_" class="st6" d="M1137.4,857l-441.4,43.9c0,0-65.9,0-140.5-43.9l-166.9-94.4c0,0-52.7-11-26.4-92.2
				c26.4-81.2,72.5-208.6,72.5-208.6s6.6-35.1,74.7-43.9S920,376.1,920,376.1s43.9-15.4,105.4,28.5l204.2,125.2
				c0,0,50.5,30.3,22,107.4C1251.6,637.2,1212.7,849.5,1137.4,857z"/>
		</defs>
		<clipPath id="SVGID_4_">
			<use xlink:href="#SVGID_3_"  style="overflow:visible;"/>
		</clipPath>
		
			<rect x="-509" y="609.8" transform="matrix(0.7024 0.7118 -0.7118 0.7024 508.2457 5.1482)" class="st7" width="1514" height="1"/>
		
			<rect x="-488.9" y="607" transform="matrix(0.7024 0.7118 -0.7118 0.7024 512.238 -10.0095)" class="st7" width="1514" height="1"/>
		
			<rect x="-468.8" y="604.2" transform="matrix(0.7024 0.7118 -0.7118 0.7024 516.2302 -25.1671)" class="st7" width="1514" height="1"/>
		
			<rect x="-448.7" y="601.4" transform="matrix(0.7024 0.7118 -0.7118 0.7024 520.2225 -40.3248)" class="st7" width="1514" height="1"/>
		
			<rect x="-428.5" y="598.6" transform="matrix(0.7024 0.7118 -0.7118 0.7024 524.2148 -55.4825)" class="st7" width="1514" height="1"/>
		
			<rect x="-408.4" y="595.8" transform="matrix(0.7024 0.7118 -0.7118 0.7024 528.207 -70.6401)" class="st7" width="1514" height="1"/>
		
			<rect x="-388.3" y="593" transform="matrix(0.7024 0.7118 -0.7118 0.7024 532.1993 -85.7978)" class="st7" width="1514" height="1"/>
		
			<rect x="-368.2" y="590.2" transform="matrix(0.7024 0.7118 -0.7118 0.7024 536.1916 -100.9555)" class="st7" width="1514" height="1"/>
		
			<rect x="-348.1" y="587.4" transform="matrix(0.7024 0.7118 -0.7118 0.7024 540.1838 -116.1132)" class="st7" width="1514" height="1"/>
		
			<rect x="-327.9" y="584.6" transform="matrix(0.7024 0.7118 -0.7118 0.7024 544.1761 -131.2708)" class="st7" width="1514" height="1"/>
		
			<rect x="-307.8" y="581.8" transform="matrix(0.7024 0.7118 -0.7118 0.7024 548.1684 -146.4285)" class="st7" width="1514" height="1"/>
		
			<rect x="-287.7" y="579" transform="matrix(0.7024 0.7118 -0.7118 0.7024 552.1606 -161.5862)" class="st7" width="1514" height="1"/>
		
			<rect x="-267.6" y="576.2" transform="matrix(0.7024 0.7118 -0.7118 0.7024 556.1529 -176.7439)" class="st7" width="1514" height="1"/>
		
			<rect x="-247.4" y="573.4" transform="matrix(0.7024 0.7118 -0.7118 0.7024 560.1452 -191.9015)" class="st7" width="1514" height="1"/>
		
			<rect x="-227.3" y="570.6" transform="matrix(0.7024 0.7118 -0.7118 0.7024 564.1375 -207.0592)" class="st7" width="1514" height="1"/>
		
			<rect x="-207.2" y="567.8" transform="matrix(0.7024 0.7118 -0.7118 0.7024 568.1297 -222.2169)" class="st7" width="1514" height="1"/>
		
			<rect x="-187.1" y="565" transform="matrix(0.7024 0.7118 -0.7118 0.7024 572.122 -237.3745)" class="st7" width="1514" height="1"/>
		
			<rect x="-167" y="562.2" transform="matrix(0.7024 0.7118 -0.7118 0.7024 576.1143 -252.5322)" class="st7" width="1514" height="1"/>
		
			<rect x="-146.8" y="559.4" transform="matrix(0.7024 0.7118 -0.7118 0.7024 580.1065 -267.6899)" class="st7" width="1514" height="1"/>
		
			<rect x="-126.7" y="556.6" transform="matrix(0.7024 0.7118 -0.7118 0.7024 584.0988 -282.8476)" class="st7" width="1514" height="1"/>
		
			<rect x="-106.6" y="553.8" transform="matrix(0.7024 0.7118 -0.7118 0.7024 588.0911 -298.0052)" class="st7" width="1514" height="1"/>
		
			<rect x="-86.5" y="550.9" transform="matrix(0.7024 0.7118 -0.7118 0.7024 592.0833 -313.1629)" class="st7" width="1514" height="1"/>
		
			<rect x="-66.3" y="548.1" transform="matrix(0.7024 0.7118 -0.7118 0.7024 596.0756 -328.3206)" class="st7" width="1514" height="1"/>
		
			<rect x="-46.2" y="545.3" transform="matrix(0.7024 0.7118 -0.7118 0.7024 600.0679 -343.4782)" class="st7" width="1514" height="1"/>
		
			<rect x="-26.1" y="542.5" transform="matrix(0.7024 0.7118 -0.7118 0.7024 604.0601 -358.6359)" class="st7" width="1514" height="1"/>
		
			<rect x="-6" y="539.7" transform="matrix(0.7024 0.7118 -0.7118 0.7024 608.0524 -373.7936)" class="st7" width="1514" height="1"/>
		
			<rect x="14.1" y="536.9" transform="matrix(0.7024 0.7118 -0.7118 0.7024 612.0447 -388.9513)" class="st7" width="1514" height="1"/>
		
			<rect x="34.3" y="534.1" transform="matrix(0.7024 0.7118 -0.7118 0.7024 616.0369 -404.1089)" class="st7" width="1514" height="1"/>
		
			<rect x="54.4" y="531.3" transform="matrix(0.7024 0.7118 -0.7118 0.7024 620.0292 -419.2666)" class="st7" width="1514" height="1"/>
		
			<rect x="74.5" y="528.5" transform="matrix(0.7024 0.7118 -0.7118 0.7024 624.0215 -434.4243)" class="st7" width="1514" height="1"/>
		
			<rect x="94.6" y="525.7" transform="matrix(0.7024 0.7118 -0.7118 0.7024 628.0137 -449.5819)" class="st7" width="1514" height="1"/>
		
			<rect x="114.8" y="522.9" transform="matrix(0.7024 0.7118 -0.7118 0.7024 632.006 -464.7396)" class="st7" width="1514" height="1"/>
		
			<rect x="134.9" y="520.1" transform="matrix(0.7024 0.7118 -0.7118 0.7024 635.9983 -479.8973)" class="st7" width="1514" height="1"/>
		
			<rect x="155" y="517.3" transform="matrix(0.7024 0.7118 -0.7118 0.7024 639.9905 -495.055)" class="st7" width="1514" height="1"/>
		
			<rect x="175.1" y="514.5" transform="matrix(0.7024 0.7118 -0.7118 0.7024 643.9828 -510.2126)" class="st7" width="1514" height="1"/>
		
			<rect x="195.2" y="511.7" transform="matrix(0.7024 0.7118 -0.7118 0.7024 647.975 -525.3703)" class="st7" width="1514" height="1"/>
		
			<rect x="215.4" y="508.9" transform="matrix(0.7024 0.7118 -0.7118 0.7024 651.9673 -540.528)" class="st7" width="1514" height="1"/>
		
			<rect x="235.5" y="506.1" transform="matrix(0.7024 0.7118 -0.7118 0.7024 655.9596 -555.6857)" class="st7" width="1514" height="1"/>
		
			<rect x="255.6" y="503.3" transform="matrix(0.7024 0.7118 -0.7118 0.7024 659.9518 -570.8433)" class="st7" width="1514" height="1"/>
		
			<rect x="275.7" y="500.5" transform="matrix(0.7024 0.7118 -0.7118 0.7024 663.9442 -586.001)" class="st7" width="1514" height="1"/>
		
			<rect x="295.9" y="497.7" transform="matrix(0.7024 0.7118 -0.7118 0.7024 667.9364 -601.1587)" class="st7" width="1514" height="1"/>
		
			<rect x="316" y="494.9" transform="matrix(0.7024 0.7118 -0.7118 0.7024 671.9286 -616.3163)" class="st7" width="1514" height="1"/>
		
			<rect x="336.1" y="492" transform="matrix(0.7024 0.7118 -0.7118 0.7024 675.921 -631.474)" class="st7" width="1514" height="1"/>
		
			<rect x="356.2" y="489.2" transform="matrix(0.7024 0.7118 -0.7118 0.7024 679.9132 -646.6317)" class="st7" width="1514" height="1"/>
		
			<rect x="376.3" y="486.4" transform="matrix(0.7024 0.7118 -0.7118 0.7024 683.9055 -661.7894)" class="st7" width="1514" height="1"/>
		
			<rect x="396.5" y="483.6" transform="matrix(0.7024 0.7118 -0.7118 0.7024 687.8978 -676.947)" class="st7" width="1514" height="1"/>
		
			<rect x="416.6" y="480.8" transform="matrix(0.7024 0.7118 -0.7118 0.7024 691.89 -692.1047)" class="st7" width="1514" height="1"/>
	</g>
	<polygon class="st8" points="447.7,416.8 429.8,405.3 407.4,407.1 405.1,408.9 392.5,415.1 413.4,442 425.1,440.5 	"/>
	<g>
		<path class="st1" d="M345.9,208.9L345.9,208.9L345.9,208.9c-1.4-1-2.8-1.8-4.4-2.6l-68.7-40.5c-6-4.1-14.4-6.7-23.7-6.7
			c-18.1,0-32.7,9.6-32.7,21.5c0,5.6,3.3,10.7,8.6,14.5l0,0l0,0c1.4,1,3,1.9,4.6,2.7l70.1,41.5c0.2,0.1,0.3,0.2,0.5,0.3l0,0h0
			c5.8,3.4,13.4,5.4,21.7,5.4c18.1,0,32.7-9.6,32.7-21.5C354.7,217.8,351.3,212.7,345.9,208.9z"/>
		<path class="st9" d="M342.1,289.4L342.1,289.4L342.1,289.4c-1.3-0.9-2.7-1.7-4.1-2.4l-64-37.7c-5.6-3.8-13.4-6.2-22.1-6.2
			c-16.8,0-30.5,9-30.5,20c0,5.2,3,10,8,13.5l0,0l0,0c1.3,0.9,2.7,1.8,4.3,2.5l65.3,38.6c0.1,0.1,0.3,0.2,0.4,0.3l0,0h0
			c5.4,3.1,12.5,5,20.2,5c16.8,0,30.5-9,30.5-20C350.2,297.8,347.1,293,342.1,289.4z"/>
		<polygon class="st9" points="350.2,130.7 350.2,303 221.4,263 221.4,90.7 		"/>
		<path class="st1" d="M351.7,214.4c-4,8.7-16.4,15.1-31,15.1c-8.2,0-15.8-2-21.5-5.4h0l0,0c-0.2-0.1-0.3-0.2-0.5-0.3l-69.3-41
			c-1.7-0.8-3.2-1.7-4.6-2.7l0,0l0,0c-2.8-2-5-4.4-6.5-7c-1.3,2.3-2,4.8-2,7.4c0,5.6,3.3,10.7,8.6,14.5l0,0l0,0c1.4,1,3,1.9,4.6,2.7
			l70.2,41.5c0.2,0.1,0.3,0.2,0.5,0.3l0,0h0c5.8,3.4,13.4,5.4,21.7,5.4c18.1,0,32.8-9.6,32.8-21.5
			C354.9,220.2,353.7,217.1,351.7,214.4z"/>
		<path class="st1" d="M342.1,117.1L342.1,117.1L342.1,117.1c-1.3-0.9-2.7-1.7-4.1-2.4l-64-37.7c-5.6-3.8-13.4-6.2-22.1-6.2
			c-16.8,0-30.5,9-30.5,20c0,5.2,3,10,8,13.5l0,0l0,0c1.3,0.9,2.7,1.8,4.3,2.5l65.3,38.6c0.1,0.1,0.3,0.2,0.4,0.3l0,0h0
			c5.4,3.1,12.5,5,20.2,5c16.8,0,30.5-9,30.5-20C350.2,125.4,347.1,120.7,342.1,117.1z"/>
	</g>
	<path class="st10" d="M247.7,453.3"/>
	<g>
		<path class="st1" d="M212.9,827.1L212.9,827.1L212.9,827.1c-1.4-1-2.8-1.8-4.4-2.6L139.8,784c-6-4.1-14.4-6.7-23.7-6.7
			c-18.1,0-32.7,9.6-32.7,21.5c0,5.6,3.3,10.7,8.6,14.5l0,0l0,0c1.4,1,3,1.9,4.6,2.7l70.1,41.5c0.2,0.1,0.3,0.2,0.5,0.3l0,0h0
			c5.8,3.4,13.4,5.4,21.7,5.4c18.1,0,32.7-9.6,32.7-21.5C221.7,836.1,218.3,831,212.9,827.1z"/>
		<path class="st9" d="M209.1,907.7L209.1,907.7L209.1,907.7c-1.3-0.9-2.7-1.7-4.1-2.4l-64-37.7c-5.6-3.8-13.4-6.2-22.1-6.2
			c-16.8,0-30.5,9-30.5,20c0,5.2,3,10,8,13.5l0,0l0,0c1.3,0.9,2.7,1.8,4.3,2.5L166,936c0.1,0.1,0.3,0.2,0.4,0.3l0,0h0
			c5.4,3.1,12.5,5,20.2,5c16.8,0,30.5-9,30.5-20C217.2,916,214.1,911.2,209.1,907.7z"/>
		<polygon class="st9" points="217.2,748.9 217.2,921.3 88.4,881.3 88.4,708.9 		"/>
		<path class="st1" d="M218.7,832.6c-4,8.7-16.4,15.1-31,15.1c-8.2,0-15.8-2-21.5-5.4h0l0,0c-0.2-0.1-0.3-0.2-0.5-0.3l-69.3-41
			c-1.7-0.8-3.2-1.7-4.6-2.7l0,0l0,0c-2.8-2-5-4.4-6.5-7c-1.3,2.3-2,4.8-2,7.4c0,5.6,3.3,10.7,8.6,14.5l0,0l0,0c1.4,1,3,1.9,4.6,2.7
			l70.2,41.5c0.2,0.1,0.3,0.2,0.5,0.3l0,0h0c5.8,3.4,13.4,5.4,21.7,5.4c18.1,0,32.8-9.6,32.8-21.5
			C221.9,838.5,220.7,835.4,218.7,832.6z"/>
		<path class="st1" d="M209.1,735.3L209.1,735.3L209.1,735.3c-1.3-0.9-2.7-1.7-4.1-2.4l-64-37.7c-5.6-3.8-13.4-6.2-22.1-6.2
			c-16.8,0-30.5,9-30.5,20c0,5.2,3,10,8,13.5l0,0l0,0c1.3,0.9,2.7,1.8,4.3,2.5l65.3,38.6c0.1,0.1,0.3,0.2,0.4,0.3l0,0h0
			c5.4,3.1,12.5,5,20.2,5c16.8,0,30.5-9,30.5-20C217.2,743.7,214.1,738.9,209.1,735.3z"/>
	</g>
	<g>
		<path class="st1" d="M1404.2,334.2L1404.2,334.2L1404.2,334.2c-1.4-1-2.8-1.8-4.4-2.6l-68.7-40.5c-6-4.1-14.4-6.7-23.7-6.7
			c-18.1,0-32.7,9.6-32.7,21.5c0,5.6,3.3,10.7,8.6,14.5l0,0l0,0c1.4,1,3,1.9,4.6,2.7l70.1,41.5c0.2,0.1,0.3,0.2,0.5,0.3l0,0h0
			c5.8,3.4,13.4,5.4,21.7,5.4c18.1,0,32.7-9.6,32.7-21.5C1413,343.2,1409.7,338,1404.2,334.2z"/>
		<path class="st9" d="M1400.4,414.7L1400.4,414.7L1400.4,414.7c-1.3-0.9-2.7-1.7-4.1-2.4l-64-37.7c-5.6-3.8-13.4-6.2-22.1-6.2
			c-16.8,0-30.5,9-30.5,20c0,5.2,3,10,8,13.5l0,0l0,0c1.3,0.9,2.7,1.8,4.3,2.5l65.3,38.6c0.1,0.1,0.3,0.2,0.4,0.3l0,0h0
			c5.4,3.1,12.5,5,20.2,5c16.8,0,30.5-9,30.5-20C1408.6,423.1,1405.5,418.3,1400.4,414.7z"/>
		<polygon class="st9" points="1408.6,256 1408.6,428.3 1279.7,388.3 1279.7,216 		"/>
		<path class="st1" d="M1410.1,339.7c-4,8.7-16.4,15.1-31,15.1c-8.2,0-15.8-2-21.5-5.4h0l0,0c-0.2-0.1-0.3-0.2-0.5-0.3l-69.3-41
			c-1.7-0.8-3.2-1.7-4.6-2.7l0,0l0,0c-2.8-2-5-4.4-6.5-7c-1.3,2.3-2,4.8-2,7.4c0,5.6,3.3,10.7,8.6,14.5l0,0l0,0c1.4,1,3,1.9,4.6,2.7
			l70.2,41.5c0.2,0.1,0.3,0.2,0.5,0.3l0,0h0c5.8,3.4,13.4,5.4,21.7,5.4c18.1,0,32.8-9.6,32.8-21.5
			C1413.2,345.6,1412.1,342.5,1410.1,339.7z"/>
		<path class="st1" d="M1400.4,242.4L1400.4,242.4L1400.4,242.4c-1.3-0.9-2.7-1.7-4.1-2.4l-64-37.7c-5.6-3.8-13.4-6.2-22.1-6.2
			c-16.8,0-30.5,9-30.5,20c0,5.2,3,10,8,13.5l0,0l0,0c1.3,0.9,2.7,1.8,4.3,2.5l65.3,38.6c0.1,0.1,0.3,0.2,0.4,0.3l0,0h0
			c5.4,3.1,12.5,5,20.2,5c16.8,0,30.5-9,30.5-20C1408.6,250.8,1405.5,246,1400.4,242.4z"/>
	</g>
	<linearGradient id="SVGID_5_" gradientUnits="userSpaceOnUse" x1="544.6518" y1="689.8209" x2="983.0222" y2="689.8209">
		<stop  offset="0" style="stop-color:#D36F23"/>
		<stop  offset="1" style="stop-color:#F0C9A1"/>
	</linearGradient>
	<path class="st11" d="M907.7,795.7l65,35.3c0,0,10.3,6,10.3-8s0-194,0-194l-83.7,61.7L828,624l-30.3-76.7l-82,35l-82.7-24l-83.3,18
		c0,0-11.3,6,0,12.7l135,80L907.7,795.7z"/>
	<path class="st3" d="M864.2,700l-30-17.7h-64.3l-31.7-78l-45.3,18.7h0l0,0l-36.3,15l-0.4-0.1l-3.1,1.2l-85.7-21.8l-74.5,15
		c-15,3.3-4.3,13.3-4.3,13.3l50.3,27l314.3,180.7l54.7,31.7c12.3,7.3,15.7-2.7,15.7-2.7V775.7L864.2,700z"/>
	<linearGradient id="SVGID_6_" gradientUnits="userSpaceOnUse" x1="481.6781" y1="752.0255" x2="920.3555" y2="752.0255">
		<stop  offset="0" style="stop-color:#A86831"/>
		<stop  offset="1" style="stop-color:#E0BE9D"/>
	</linearGradient>
	<path class="st12" d="M535.7,678.7l-50.3-27c0,0-10.7-10,4.3-13.3L571,622l82.3,22l81.7-33.7l31.7,78H831l30,17.7l59.3,75.7v106.7
		c0,0-3.3,10-15.7,2.7L850,859.3L535.7,678.7z"/>
	<linearGradient id="SVGID_7_" gradientUnits="userSpaceOnUse" x1="481.6781" y1="752.0255" x2="920.3555" y2="752.0255">
		<stop  offset="0" style="stop-color:#A86831"/>
		<stop  offset="1" style="stop-color:#E0BE9D"/>
	</linearGradient>
	<path class="st13" d="M535.7,678.7l-50.3-27c0,0-10.7-10,4.3-13.3L571,622l82.3,22l81.7-33.7l31.7,78H831l30,17.7l59.3,75.7v106.7
		c0,0-3.3,10-15.7,2.7L850,859.3L535.7,678.7z"/>
	<path class="st14" d="M429.9,709.8l419,239.5c0,0,14.8,11.3,14.8-8.3c0-19.7,0-310,0-310l-81.3,95l-77,0.7l-42-25.3l-69,1l-43.3-35
		l-121.2,29C429.9,696.3,417.3,702.7,429.9,709.8z"/>
	<polygon class="st3" points="867.7,637.8 867.7,882.7 841.7,870.9 854.7,622.7 	"/>
	<linearGradient id="SVGID_8_" gradientUnits="userSpaceOnUse" x1="424.2638" y1="797.1397" x2="863.6888" y2="797.1397">
		<stop  offset="0.4157" style="stop-color:#C26219"/>
		<stop  offset="1" style="stop-color:#E8A162"/>
	</linearGradient>
	<path class="st15" d="M429.9,715.2l419,239.5c0,0,14.8,11.3,14.8-8.3s0-310,0-310l-81.3,95l-77,0.7l-42-25.3l-69,1l-43.3-35
		l-121.2,29C429.9,701.7,417.3,708,429.9,715.2z"/>
	<polyline class="st16" points="421,341.7 392.5,406.8 421,421.7 427,405.8 423,352.2 	"/>
	<g>
		<path class="st2" d="M471,514.3l-67,6.7c0,0-10,0-21.3-6.7L357.4,500c0,0-8-1.7-4-14c4-12.3,11-31.7,11-31.7s1-5.3,11.3-6.7
			c10.3-1.3,62.3-6.3,62.3-6.3s6.7-2.3,16,4.3l31,19c0,0,7.7,4.6,3.3,16.3C488.4,481,482.4,513.2,471,514.3z"/>
		<path class="st3" d="M471,509l-67,6.7c0,0-10,0-21.3-6.7l-25.3-14.3c0,0-8-1.7-4-14c4-12.3,11-31.7,11-31.7s1-5.3,11.3-6.7
			C386,441,438,436,438,436s6.7-2.3,16,4.3l31,19c0,0,7.7,4.6,3.3,16.3C488.4,475.7,482.4,507.9,471,509z"/>
	</g>
	<g>
		<path class="st2" d="M667,199.3l-48.6,4.8c0,0-7.3,0-15.5-4.8l-18.4-10.4c0,0-5.8-1.2-2.9-10.2s8-23,8-23s0.7-3.9,8.2-4.8
			c7.5-1,45.3-4.6,45.3-4.6s4.8-1.7,11.6,3.1l22.5,13.8c0,0,5.6,3.3,2.4,11.8C679.6,175,675.3,198.4,667,199.3z"/>
		<path class="st3" d="M667,195.4l-48.6,4.8c0,0-7.3,0-15.5-4.8L584.5,185c0,0-5.8-1.2-2.9-10.2c2.9-9,8-23,8-23s0.7-3.9,8.2-4.8
			c7.5-1,45.3-4.6,45.3-4.6s4.8-1.7,11.6,3.1l22.5,13.8c0,0,5.6,3.3,2.4,11.8C679.6,171.2,675.3,194.6,667,195.4z"/>
	</g>
	<g>
		<path class="st2" d="M1256,740.3l-67,6.7c0,0-10,0-21.3-6.7l-25.3-14.3c0,0-8-1.7-4-14c4-12.3,11-31.7,11-31.7s1-5.3,11.3-6.7
			c10.3-1.3,62.3-6.3,62.3-6.3s6.7-2.3,16,4.3l31,19c0,0,7.7,4.6,3.3,16.3C1273.4,707,1267.4,739.2,1256,740.3z"/>
		<path class="st3" d="M1256,735l-67,6.7c0,0-10,0-21.3-6.7l-25.3-14.3c0,0-8-1.7-4-14c4-12.3,11-31.7,11-31.7s1-5.3,11.3-6.7
			c10.3-1.3,62.3-6.3,62.3-6.3s6.7-2.3,16,4.3l31,19c0,0,7.7,4.6,3.3,16.3C1273.4,701.7,1267.4,733.9,1256,735z"/>
	</g>
	<polygon class="st17" points="421,341.7 421,421.7 449.4,407 	"/>
	<polyline class="st17" points="421,431.3 421,479.3 447.7,416.7 	"/>
	<polyline class="st16" points="392.5,415 421,431.3 421,479.3 392.5,415.8 	"/>
	<path class="st16" d="M433.5,408.8"/>
	<path class="st18" d="M1233.4,667.1c0,0,6.8,0.9,6-11.4c0,0,0.8-17.5-17.4-29.8v-14.5l-7.9-4.5l-5.5,3v-8.5l-8.3-5.3l-12.3,6.7
		l-2.6-1.8l-20.6,11.2l30.2,26.6v27.9l-9.6-4.8v8.7l15.1,11.6v13.6l7.9,4.8v-11.1l6.1,3l-0.2,3.2l-1,0.2l0.8,2.2l-0.3,6.6l3.8,2.6
		l2.5,6.8l16.3-9.1c0,0,0,0,0,0c6.3-3.5,7.4-10.6,7.6-13.6C1244.4,684.1,1243,675.2,1233.4,667.1z"/>
	<polygon class="st18" points="1201.4,721.6 1216.5,712.1 1187,692.1 1187.7,711.8 1201.7,707 1196.4,709.7 	"/>
	<polygon class="st18" points="1164.8,673.2 1182.2,659.1 1180.1,686.7 	"/>
	<path class="st19" d="M1201.4,637.2v-14.5l-7.9-4.5V632l-5.5-4.3v-15l-8.3-5.3v14.9l-14.9-10v10l9.6,8.8v47l-9.6-4.8v8.7l15.1,11.6
		V707l7.9,4.8v-11.1l6.1,3l-0.6,12.2l8.1,5.6v-12.2l9.8,5.1c0,0,10.9,3.2,11.8-4.6s3-20.4-10.1-31.5c0,0,6.8,0.9,6-11.4
		C1218.7,667,1219.5,649.4,1201.4,637.2z"/>
	<path class="st20" d="M1188.5,640.3v17.8l8,5.2c0,0,8,4,8-1.7C1204.5,655.9,1204.3,651.1,1188.5,640.3z"/>
	<path class="st21" d="M1188.5,669.1v19.9l12.1,7.6c0,0,6.9,2.8,7.1-4.5S1203.9,677.1,1188.5,669.1z"/>
	<path class="st18" d="M1188.5,669.1v19.9l14.9-8.9C1200.4,676.5,1195.6,672.8,1188.5,669.1z"/>
	<path class="st18" d="M1188.5,640.3v17.8l12.7-7C1198.8,648.2,1195,644.8,1188.5,640.3z"/>
	<polygon class="st22" points="1193.5,618.2 1214.1,607 1222,611.4 1201.4,622.7 	"/>
	<polygon class="st22" points="1188,613.2 1208.6,601.4 1200.3,596.1 1179.7,607.3 	"/>
	<path class="st23" d="M1028.3,636.3c0,0,17.4-2,16.1-20s4.2-42.2-8-46.4c-12.2-4.2-13,5.8-13,5.8v24.8l-3,22.2
		C1020.4,622.7,1018,636.3,1028.3,636.3z"/>
	<path class="st24" d="M1036.4,487.7l21.1,14.4c0,0,6.4,3.1,3.7,13.6l-4.8,7c0,0-0.5,35.2-16.8,38.2l-3.2-10.6l-1.2-32.1
		c0,0,1.5-8.7-8.8-14S1036.4,487.7,1036.4,487.7z"/>
	<path class="st25" d="M1044.5,565.9l-18.6-57c10.2-3,11-11.2,11-11.2c3.8-15.5-11.8-15.5-11.8-15.5l-0.2-6.5c0,0,3.2-31,9.5-59.2
		s5.2-54,5.2-54c-1.2,13-16.1,15-16.1,15c-38.1-2-61.4-28.5-61.4-28.5l-1.2,7c0,0-1,85.2,0,98.8s6.2,18.2,6.2,18.2l32.4,18.3
		l3.6,13.4c0,0,12.8,51.8,15.5,64.2c2.8,12.4,9.8,11.8,9.8,11.8C1045.1,579.7,1044.5,565.9,1044.5,565.9z M999.9,467.4l-15-10.5
		l7.5-58.5l7.5,3V467.4z"/>
	<path class="st26" d="M999.9,467.4c0,0-2,13.5-0.3,23.8C999.5,491.2,988.9,480.5,999.9,467.4z"/>
	<path class="st3" d="M961.5,352.2c0,0-1.8-1.7-2.2-12.9s2.2-63.7,2.2-63.7l-5.2,6.8c0,0-5.8-0.2-12.2-5.7c0,0-9.5-4.5-4.3-15.5
		l13.7-23.2c0,0,7-9.7,21.7-6.7c14.7,3,53.3,12,53.3,12s22.5,4.8,31.3,29l7.8,24.2l4.5,23.8c0,0,2.5,8.5-5.8,9.7
		c-8.3,1.2-15.8,2.7-16.8-1.8s-8-35.7-8-35.7l-2.8,35.8l1,36.8c0,0,0.7,29.7-55.5,14.3C984.2,379.7,970.7,376.3,961.5,352.2z"/>
	<linearGradient id="SVGID_9_" gradientUnits="userSpaceOnUse" x1="967.6888" y1="338.583" x2="1071.8575" y2="338.583">
		<stop  offset="0" style="stop-color:#E49FA0"/>
		<stop  offset="1" style="stop-color:#DBAA91"/>
	</linearGradient>
	<path class="st27" d="M1070.9,326.3l1,20.7c0,0,0.3,6.7-7.3,7.2c-7.7,0.5-54.2-2.7-54.2-2.7l-20.2-2.6c0,0-22-6.7-22.5-18.1
		c0,0,0.7-8.7,9.8-5.8l9.7,5.5l0.8-7.3c0,0,3.2-1.5,3.5,2.8c0,0-2.5,8.8,5.3,10l56,1.2l0.3-11.8L1070.9,326.3z"/>
	<path class="st28" d="M955.1,282.4l-9.2,14.3c0,0-5.2,7-20.8,8.2c-15.7,1.2-44.3,2.7-44.3,2.7l-23.7-6l3.8-5c0,0-0.7-5,6-3.3
		l12.8,2.8l49-6.3c0,0,6.6-4.4,11.8-21.3S955.1,282.4,955.1,282.4z"/>
	<path class="st29" d="M998.2,261.8c0,0,19.1-7.1,22.2-20.2c0,0,3.3-6.8-4.7-7.1s-37.3,1-37.3,1s1.8,18,5.2,20l8.2-4.8l3.3,0.7
		L998.2,261.8z"/>
	<path class="st30" d="M1027.4,209.3c0,0,12.7-12.7,4-23.7l-6-4.7c0,0,0.6-12.2-23.9-13.7c0,0-31.3-1.7-24.7,20.1
		c6.6,21.7,23,21.9,23,21.9l13.8,7L1027.4,209.3z"/>
	<path class="st28" d="M994.2,250c0,0,21-4.2,21.5-15.5c0,0-1-12.7,3.2-15s11.5-2.2,9.5-11.8c-2-9.7-8.3,0-8.3,0l-0.8,3.3l-2.3-0.2
		l1-14c0,0-4.3-1-6.4-9.7c0,0-17.9,6.5-33.9-1.5c0,0-4.7,8.3-3,23.8l0.8,18.7c0,0-0.8,10.5,7,10.3l8.2,0.3L994.2,250z"/>
	<path class="st31" d="M888.9,375.3l49.5-27.3c0,0,6-4.9-2-9.4S886,309.3,886,309.3l-10.7,16.9C875.4,326.2,878.5,367.7,888.9,375.3
		z"/>
	<path class="st32" d="M887,367.8l22.8-13.6c0,0,4.7-2.7-1.5-5.3S883,334.5,883,334.5L887,367.8z"/>
	<path class="st33" d="M888.9,375.3l-2.2-61.7c0,0,1.7-5.3-6-8.7l-59-33.5c0,0-8.3-4.8-7.8,4.2l3.3,58.3L888.9,375.3z"/>
	<ellipse transform="matrix(0.5257 -0.8507 0.8507 0.5257 131.0022 872.6429)" class="st3" cx="848" cy="318.8" rx="6" ry="8.6"/>
</g>
</svg>
