<?xml version="1.0" encoding="utf-8"?>
<!-- Generator: Adobe Illustrator 22.0.1, SVG Export Plug-In . SVG Version: 6.00 Build 0)  -->
<svg version="1.1" id="Слой_1" xmlns="http://www.w3.org/2000/svg" xmlns:xlink="http://www.w3.org/1999/xlink" x="0px" y="0px"
	 viewBox="0 0 530 460" style="enable-background:new 0 0 530 460;" xml:space="preserve">
<style type="text/css">
	.st0{fill:#F9EBC8;}
	.st1{opacity:0.2;fill:#583D0E;}
	.st2{fill:#DC4060;}
	.st3{fill:#DC4160;}
	.st4{fill:#DF6080;}
	.st5{fill:#F1F3FC;}
	.st6{fill:#FFFFFF;}
	.st7{opacity:0.35;}
	.st8{fill:#62627D;}
	.st9{fill:#D6A57F;}
	.st10{opacity:0.25;}
	.st11{fill:#444462;}
	.st12{opacity:0.48;}
	.st13{fill:#DE6788;}
	.st14{fill:#B58768;}
	.st15{fill:#ECB791;}
	.st16{fill:#1C1C2E;}
	.st17{fill:#E8A29B;}
	.st18{fill:#343454;}
	.st19{fill:url(#SVGID_1_);}
	.st20{fill:#253258;}
	.st21{fill:#D57682;}
	.st22{fill:#33334A;}
	.st23{fill:#B65366;}
	.st24{fill:#E5938B;}
	.st25{fill:#1C1C2C;}
	.st26{fill:#C26476;}
	.st27{fill:#373556;}
</style>
<g>
	<circle class="st0" cx="248.6" cy="237.5" r="221.6"/>
	<path class="st1" d="M529.2,398.9c0,0.7-5.9,1.4-16.3,2c-10.4,0.6-25.3,1.1-43.3,1.5c-87.1,25.5-185.5,6.9-185.5,6.9
		c0.3-0.1-0.3,0.1,0,0c-23.6,1.5-60.1,2.1-102.2,2.1c-71.5,0-165.9-2.8-165.9-6.2c0-3.4,94.4-6.2,165.9-6.2c8.3,0,17.4,0.1,26.9,0.2
		c-0.2-0.1-0.3-0.2-0.3-0.2c0-2.3,102.6-4.2,180.2-4.2C442.3,394.8,529.2,396.6,529.2,398.9z"/>
	<g>
		<path class="st2" d="M465.2,367c0,0,0,0.8,0,0.8h-0.3v28.5h0c0,0,0,0.1,0,0.1c0,7.7-45.4,13.9-101.7,13.9H362
			c-13.2,0-25.9-0.3-37.5-1c-0.9,0-1.7-0.1-2.6-0.1c-36.9-2.1-62.8-7.1-62.8-12.9V367h0.4c0,0,0,0,0,0c0-3,6.5-5.8,17.6-8
			c9.1-1.9,21.2-3.4,35.4-4.5c0.7-0.1,1.5-0.1,2.2-0.2c9.5-0.7,19.8-1.2,30.8-1.4c5.5-0.1,11.1-0.2,16.8-0.2
			c35.5,0,66.7,2.5,85.2,6.4C458.7,361.3,465.2,364,465.2,367z"/>
	</g>
	<g>
		<path class="st3" d="M465.1,45.8c0,0.1,0,0.1-0.1,0.2c-0.8,2.7-7.2,5.3-17.5,7.4c-2.1,0.4-4.4,0.9-6.9,1.3c-2.2,0.4-4.5,0.7-7,1
			c-18.5,2.5-43.7,4-71.4,4c-35.5,0-66.8-2.5-85.2-6.4c-10.9-2.3-17.4-5-17.6-7.9h-0.4V15.6c0-8.2,46.1-14.7,102.9-14.7
			c25.4,0,48.6,1.3,66.6,3.5c7.6,0.9,14.2,2,19.6,3.2c0.7,0.2,1.4,0.3,2.1,0.5c9.2,2.2,14.6,4.8,14.6,7.6v30.1H465.1z"/>
	</g>
	<g>
		<ellipse class="st4" cx="362" cy="45.3" rx="102.9" ry="14.2"/>
	</g>
	<g>
		<path class="st4" d="M464.8,366.6c0,7.9-46.1,14.2-102.9,14.2c-56.8,0-102.9-6.4-102.9-14.3c0-7.9,46.1-14.2,102.9-14.2
			C418.8,352.4,464.8,358.8,464.8,366.6z"/>
	</g>
	<g>
		<path class="st5" d="M448,317.3c1.1,10.9,0.9,21.9,0.2,32.8c-0.2,2.9-0.4,5.9-0.7,8.8c-0.2,2.4-0.4,4.8-0.6,7.2
			c-18.6,3.7-49.5,6.2-84.6,6.1c-4.6,0-9.1,0-13.5-0.1c-12-0.2-23.3-0.7-33.7-1.5c-0.3,0-0.5,0-0.8-0.1c-14.7-1.1-27.3-2.6-36.7-4.6
			c-0.2-2.4-0.4-4.8-0.6-7.2c-0.2-3-0.5-5.9-0.7-8.9c-0.7-10.9-0.9-21.9,0.2-32.7c1.1-10.8,3.7-21.6,8.2-31.5
			c2.1-4.7,4.7-9.2,7.8-13.4c0.6-0.9,1.3-1.7,2-2.5c5-6.1,10.9-11.2,17.2-16.1c2.4-1.9,4.9-3.8,7.4-5.6c0,0,0,0,0,0
			c1-0.7,1.9-1.4,2.9-2.2c9.7-7.3,19.4-15.2,25.7-25.6c0-0.1,0.1-0.1,0.1-0.2c4.8-7.9,5.2-17.7,1.4-26c-0.5-1.1-1-2.2-1.6-3
			c-6.3-10.4-16-18.2-25.7-25.6c-9.7-7.3-19.8-14.5-27.5-23.9c-10.8-13.3-16.1-30.4-17.9-47.4c-1.4-13.7-0.7-27.4,0.4-41.1
			c0.2-2.7,0.5-5.4,0.7-8.2c18.6-3.7,49.5-6.2,84.5-6.2c29,0,55.1,1.7,73.8,4.4c1.7,0.2,3.3,0.5,4.9,0.8c2.1,0.3,4,0.7,5.8,1.1
			c0.2,2.7,0.5,5.4,0.7,8.2c1.1,13.7,1.6,27.5,0.2,41.1c-1.4,13.3-4.6,26.6-11.7,38.1v0c-1.8,3.2-3.8,6.3-6.1,9.3
			c-4.1,5-8.7,9.4-13.7,13.4c-4.4,3.6-9,7-13.6,10.5c-9.7,7.3-19.4,15.2-25.7,25.6c-0.5,0.8-1,1.9-1.5,3c-3.8,8.4-3.3,18.2,1.5,26.1
			c0,0,0.1,0.1,0.1,0.1c6.3,10.4,16,18.2,25.7,25.6c9.7,7.3,19.8,14.5,27.5,23.9C440.9,283.2,446.3,300.3,448,317.3z"/>
	</g>
	<g>
		<g>
			<path class="st6" d="M287,54.7c-6.3,28.5,0.1,59.1,17.6,82.6c3.1,4.2,10.2,0.1,7.1-4.1c-16.2-21.7-22.6-49.7-16.8-76.3
				C296,51.8,288.1,49.6,287,54.7L287,54.7z"/>
		</g>
	</g>
	<g class="st7">
		<path class="st8" d="M447.5,358.6c-0.2,2.4-0.4,4.8-0.6,7.2c-18.6,3.8-49.5,6.4-84.6,6.5c-35.1,0.1-66-2.2-84.6-5.9
			c-0.2-2.4-0.5-4.8-0.7-7.2c18.5-3.9,49.7-6.5,85.2-6.7C397.8,352.5,429,354.9,447.5,358.6z"/>
	</g>
	<g>
		<path class="st9" d="M439.5,328.4c-0.1-0.9-0.2-1.8-0.3-2.7c-1.9-2.8-4-5.5-6.4-8c-1.3-1.4-2.6-2.6-4-3.9
			c-2.7-4.8-7.8-9-12.2-10.9c-2.9-1.2-5-1.3-6.8-4.2c-1.1-1.8-2-3.7-3.8-5c-2.6-1.9-6-1.8-9.1-2.5c-0.7-0.5-1.4-1-2-1.5h0
			c-1.5-1.3-3-2.7-4.4-4.2c-1.1-2.6-1.7-5.4-3.8-7.6c-1.2-1.2-2.6-1.6-4.1-2.2c-1.3-2-2.6-4-3.7-6.1c0-1.5,0.3-3.1,0.1-4.7
			c-0.6-5-4.1-8-7.1-11.6c-0.2-0.2-0.4-0.5-0.6-0.8c-1.5-4.3-2.8-8.6-3.8-12.6c-0.1-1.7-0.1-3.4-0.1-5.1c0-1.2-0.7-2-1.6-2.3
			c-2.3-11.3-2.7-19.3-2.7-19.3c-0.4-8.5,0.7-17.1,3.2-22.6c0.7-1.5,1.3-2.8,2-3.9c7.2-11.8,19.7-20.5,29.3-27.7
			c1-0.8,2.1-1.6,3.1-2.4c2.2-1.7,4.4-3.3,6.6-5c-1-0.2-2-0.5-3-0.7c0.1-0.6-0.2-1.3-0.9-1.5c-3.8-1.1-8-2.9-12-3.3
			c-2-0.2-3.5,0.4-5.4,0.9c-3,0.7-4.4-0.5-6.8-2c-2.2-1.4-4.1-1.5-6.5-0.5c-2.3,1-4,2.4-6.7,1.7c-2.1-0.6-3.7-2-5.9-2.3
			c-2.7-0.4-5,0.9-7.4,2c-0.7,0.3-1.4,0.6-2.1,0.8c-1.7,0.1-3.4,0.2-5,0.4c-0.3,0-0.5-0.1-0.8-0.1c-1.7-0.4-3.4-0.9-5.2-0.7
			c-2.2,0.3-4,1.6-6.3,1.7c-2,0.1-4-0.4-6-0.5c-3-0.1-5.6,0.5-7.7,2.8c-0.3,0.3-0.4,0.6-0.3,0.9c-0.7,0.2-1.4,0.3-2.1,0.5
			c2.2,1.7,4.4,3.3,6.6,5c1,0.8,2,1.5,3.1,2.3c9.6,7.2,22.1,15.9,29.3,27.7c0.7,1.1,1.4,2.4,2.1,4c2.5,5.5,3.5,14.1,3.2,22.6
			c0,0-1.3,26-12.7,50.1c-0.7,0.8-1.4,1.6-2.2,2.4c-2.8,2.8-5.1,5.9-6.7,9.6c-0.8,1.7-1.1,4.1-2.5,5.4c-1.4,1.3-3.3,0.7-5.1,1.1
			c-3.3,0.6-6.4,2.5-8.5,5.2c-2.5,3.4-2.8,7.4-6.9,9.6c-3.3,1.8-6.9,2.7-9.9,4.9c-3.1,2.2-6.8,6.2-9.2,10.3
			c-2.2,1.8-4.3,3.7-6.3,5.8c-2.3,2.5-4.5,5.1-6.4,8c0,0,0,0,0,0c-0.1,0.9-0.2,1.8-0.3,2.7c-0.9,9-1,8.1-0.2,20.7
			c0.2,3.2,0.5,6.5,0.7,9.7c18.9,3.1,47,4.9,76.8,5h0.4c29.7,0,57.6-1.8,76.4-4.9c0.3-3.1,0.5-6.4,0.7-9.7
			C440.5,336.5,440.5,337.5,439.5,328.4z"/>
	</g>
	<g class="st10">
		<path class="st11" d="M319.2,248.2C319.2,248.2,319.2,248.2,319.2,248.2C319.2,248.2,319.2,248.2,319.2,248.2
			C319.2,248.2,319.2,248.2,319.2,248.2z"/>
	</g>
	<g class="st12">
		<path class="st11" d="M363.2,410.3H362c-13.2,0-25.9-0.3-37.5-1c-0.9,0-1.7-0.1-2.6-0.1c-36.9-2.1-62.8-7.1-62.8-12.9V367h0.4
			c0,0,0,0,0,0c0-3,6.5-5.8,17.6-8c-0.2-3-0.5-5.9-0.7-8.9c-0.7-10.9-0.9-21.9,0.2-32.7c1.1-10.8,3.7-21.6,8.2-31.5
			c2.1-4.7,4.7-9.2,7.8-13.4c0.6-0.9,1.3-1.7,2-2.5c5-6.1,10.9-11.2,17.2-16.1c-1,1.9-1.5,4.1-1.4,6.3c0.2,5.4,3.4,10.4,7.2,14.3
			c3.8,3.9,8.3,7.1,12,11.2c7.7,8.4,11.5,19.8,13.2,31c1.7,11.3,1.6,22.7,2.6,34.1c0.1,0.7,0.1,1.4,0.2,2.2c0.7,6.5,1.8,13,3.4,19.4
			C352,385.5,356.8,398.3,363.2,410.3z"/>
	</g>
	<g class="st7">
		<path class="st8" d="M447.6,53.3c-18.5,3.8-49.8,6.3-85.3,6.3c-35.5,0-66.8-2.5-85.2-6.4c0.2-2.7,0.5-5.4,0.7-8.2
			c18.6-3.7,49.5-6.2,84.5-6.2c35,0,66,2.5,84.5,6.2C447.1,47.9,447.4,50.6,447.6,53.3z"/>
	</g>
	<g>
		<path class="st13" d="M270.5,15.1c-0.6,5.5-1,11.1-1.1,16.6c-0.1,3.3,5.1,3.3,5.2,0c0.1-5.6,0.4-11.1,1.1-16.6
			C276,11.8,270.9,11.8,270.5,15.1z"/>
	</g>
	<g>
		<path class="st6" d="M426.8,293.7c-1.5-5.7-3.4-10.9-7.1-15.5c-2-2.5-3.8-4.9-5.4-7.6c-0.7-1.1-1.3-2.1-2.1-3.1
			c-0.4-0.6-0.9-1.2-1.5-1.7c-0.1-0.1-0.2-0.2-0.3-0.3c0.2-5-7.6-5-8,0.1c-0.2,2.6,1,4,2.6,5.9c1.8,2.1,3,4.5,4.5,6.8
			c1.7,2.5,3.9,4.6,5.6,7.1c1.7,2.6,2.7,5.6,3.5,8.6c3.9,13.8,5,27.7,5,42c0,5.1,8,5.2,8,0C431.5,321.5,430.5,307.6,426.8,293.7z"/>
	</g>
	<g>
		<path class="st6" d="M418,111.5c-2.2,0-3.5,1.6-3.9,3.5c0,0,0,0,0,0.1c0,0.1-0.4,0.6-0.4,0.6c-0.2,0.3-0.9,1-1.3,1.4
			c-1.1,1.2-2.3,2.4-3.1,3.8c-2.6,4.5,4.3,8.5,6.9,4c0.1-0.2,0.2-0.4,0.3-0.5c0.3-0.3,0.5-0.6,0.8-0.9c0.6-0.7,1.3-1.3,1.9-2
			c1.6-1.8,2.6-3.6,2.8-6C422.2,113.3,420,111.5,418,111.5z"/>
	</g>
	<g>
		<path class="st14" d="M398.8,333.7c-1.4,0.1-2.7,1.2-2.7,2.7v1.4c0,1.4,1.2,2.7,2.7,2.7c1.4-0.1,2.7-1.2,2.7-2.7v-1.4
			C401.4,335,400.2,333.7,398.8,333.7z"/>
	</g>
	<g>
		<path class="st14" d="M365,297.3c-1.4,0.1-2.7,1.2-2.7,2.7v0.7c0,1.4,1.2,2.7,2.7,2.7c1.4-0.1,2.7-1.2,2.7-2.7v-0.7
			C367.6,298.5,366.4,297.2,365,297.3z"/>
	</g>
	<g>
		<path class="st14" d="M415.6,312.4c-1.4,0.1-2.7,1.2-2.7,2.7v1.4c0,1.4,1.2,2.7,2.7,2.7c1.4-0.1,2.7-1.2,2.7-2.7v-1.4
			C418.3,313.7,417.1,312.3,415.6,312.4z"/>
	</g>
	<g>
		<path class="st14" d="M354.3,355.1c-3.6,0-3.6,5.3,0,5.3C357.9,360.4,357.9,355.1,354.3,355.1z"/>
	</g>
	<g>
		<path class="st14" d="M352.5,323.4c-1.4,0.1-2.7,1.2-2.7,2.7v0.7c0,1.4,1.2,2.7,2.7,2.7c1.4-0.1,2.7-1.2,2.7-2.7v-0.7
			C355.2,324.7,354,323.4,352.5,323.4z"/>
	</g>
	<g>
		<path class="st14" d="M430.8,355.1c-1.4,0.1-2.7,1.2-2.7,2.7v0.7c0,1.4,1.2,2.7,2.7,2.7c1.4-0.1,2.7-1.2,2.7-2.7v-0.7
			C433.4,356.3,432.2,355,430.8,355.1z"/>
	</g>
	<g>
		<path class="st14" d="M354.3,155.5c-3.6,0-3.6,5.3,0,5.3C357.9,160.9,357.9,155.5,354.3,155.5z"/>
	</g>
	<g>
		<path class="st14" d="M388.1,153.6c-1.1-1-2.7-1.1-3.8,0l-0.7,0.7c-1,1-1.1,2.8,0,3.8c1.1,1,2.7,1.1,3.8,0
			c0.2-0.2,0.5-0.5,0.7-0.7C389,156.3,389.1,154.5,388.1,153.6z"/>
	</g>
	<g>
		<path class="st14" d="M367.4,174.2c-1.1-1-2.7-1.1-3.8,0l-0.7,0.7c-1,1-1.1,2.8,0,3.8c1.1,1,2.7,1.1,3.8,0
			c0.2-0.2,0.5-0.5,0.7-0.7C368.4,177,368.5,175.2,367.4,174.2z"/>
	</g>
	<g>
		<path class="st15" d="M366.8,270.8c-2.7,0-2.7,5.3,0,5.3C370.3,276.2,370.3,270.8,366.8,270.8z"/>
	</g>
	<g>
		<path class="st15" d="M388.1,295.7c-1.4,0.1-2.7,1.2-2.7,2.7v0.7c0,1.4,1.2,2.7,2.7,2.7c1.4-0.1,2.7-1.2,2.7-2.7v-0.7
			C390.8,297,389.5,295.7,388.1,295.7z"/>
	</g>
	<g>
		<path class="st15" d="M378.3,325.8c-3.6,0-3.6,5.3,0,5.3C381.9,331.1,381.9,325.8,378.3,325.8z"/>
	</g>
	<g>
		<path class="st15" d="M398.7,357.3c-1.1-0.2-2.3,0.2-2.9,1.1c-0.9,0.6-1.4,1.9-1.1,2.9c0.5,1.4,1.8,2.2,3.3,1.9
			c0.2,0,0.4-0.1,0.6-0.1c0.9-0.2,1.7-1,1.9-1.9l0.1-0.6C400.8,359.3,400.1,357.7,398.7,357.3z"/>
	</g>
	<g>
		<path class="st15" d="M350.8,267.9c-3.6,0-3.6,5.3,0,5.3C354.3,273.2,354.3,267.9,350.8,267.9z"/>
	</g>
	<g>
		<path class="st15" d="M338.4,154.9c-0.1-1.4-1.2-2.7-2.7-2.7c-1.3,0-2.5,0.5-3.4,1.5c-0.5,0.6-0.8,1.1-0.8,1.9
			c0,0.7,0.3,1.4,0.8,1.9c1,0.9,2.8,1.2,3.8,0c0,0,0,0,0,0C337.3,157.3,338.4,156.2,338.4,154.9z"/>
	</g>
	<g>
		<path class="st16" d="M29.8,386.1c-3.7,0-5.9-2.4-8.1-5.4c-2.1-3.1-4.7-6-5.8-9.5c-1.1-3.5-2.9-11.2-4.8-14.5
			c-1.7-3-1.7-2.8-4.9-3.3c-1.3-0.2-5.1-0.2-5.3,4.1c-0.7,15.4,0.6,29.6,6.3,43.9c0.8,2,1.9,4.3,4,4.9c1.5,0.5,3.1-0.1,4.6-0.5
			c6-1.7,12.3-2.3,18.5-1.6C33.4,398.2,32.3,391.6,29.8,386.1z"/>
	</g>
	<g>
		<path class="st17" d="M186.7,293.1c-0.4-6.2-3.3-12.4-8.4-16c-5.1-3.6-12.5-4-17.4-0.2c2.2,4.8,5.4,8.5,10,11
			C175.5,290.5,181.5,294,186.7,293.1z"/>
	</g>
	<g>
		<path class="st17" d="M231.2,294.2l-10.6,24.5L178,283.5c0,0,24,53.4,45.5,61.4c0,0,22.2-30.2,25-45.2
			C248.6,299.7,244.2,293.3,231.2,294.2z"/>
	</g>
	<g>
		<path class="st17" d="M339,343.5l-2.6,77.5l-11.6-5c0,0-2-27.7-6.6-70.6c0,0-6.7-17.7-9.2-27.9c-3.1-12.4-1.4-18,8-23
			C321,292.4,330.1,299.1,339,343.5z"/>
	</g>
	<g>
		<path class="st18" d="M29.5,394.7c0,5.6,0.9,8,1.6,13.4l178.8-4.4l35.5-0.9c29.9-0.2,33.5-23,33.5-23l-40.7-30.2l-14.6-10.9
			l-44.3-53.9c-0.4-0.4-0.8-0.8-1.2-1.3c-3.5-4.2-8.1-6.7-13-7.5c-10.9-1.9-21.3,4.8-24.6,15.3c-0.2,0.4-0.3,0.8-0.4,1.2l-14.3,81.2
			l-96,12.3C29.6,388.9,29.5,391.8,29.5,394.7z M155,370.6l10.6-47.7l32.1,43.1L155,370.6z"/>
	</g>
	<g class="st7">
		<path class="st11" d="M125.8,373.8l29.2-3.2l10.6-47.7l32.1,43.1c0,0,30.4-3.9,40.4-16.4l-14.6-10.9l-44.3-53.9
			c-0.4-0.4-0.8-0.8-1.2-1.3c-3.5-4.2-8.1-6.7-13-7.5c-10.9-1.9-21.3,4.8-24.6,15.3c-0.2,0.4-0.3,0.8-0.4,1.2L125.8,373.8z"/>
	</g>
	<g>
		<linearGradient id="SVGID_1_" gradientUnits="userSpaceOnUse" x1="222.1121" y1="318.7133" x2="333.4944" y2="318.7133">
			<stop  offset="0" style="stop-color:#DD4B5B"/>
			<stop  offset="1" style="stop-color:#E27D34"/>
		</linearGradient>
		<path class="st19" d="M326.7,287.4c-1.5-5.1-3.1-10.3-6.3-14.6c-4.8-6.4-12.5-9.6-20.4-11.7c-0.9-0.2-1.8-0.5-2.7-0.7
			c-1.6-0.4-3.2-0.8-4.7-1.1c-5-1.1-10.2-1.6-15.5-1.7c-1.7,0-3.5,0-5.2,0c0,0-1.2-0.1-3.2,0.1c-6.7,0.8-22.3,5.4-34.4,29.7
			c-1,2.1-2.1,4.3-3,6.7l12,4.8c-0.9,3.6-2.4,7.8-4.3,12.3c-1.5,2.4-3.7,4.3-4.5,7c-0.5,1.9-0.6,2.8-2.1,4.1c-1.1,1-2.4,1.6-3.2,2.9
			c-0.9,1.5-0.8,2.9-1.8,4.4c-1.1,1.8-2.3,1.7-3.8,3.1c-1.9,1.7-2,4-0.7,6.1c0.3,0.5,2,2.3,2.5,2.2c15.9,17.5,31.4,29.7,53.4,38.7
			c1-2.4,2.1-5.2,3.3-8.3c1.8-2.6,3.7-5.2,5.2-7.9c2.2-3.9,2.6-8,3.7-12.2c2-7.7,7.8-13.5,7.2-21.7c1.6-4.2,3-8,4.2-11
			c1.9-4.9,3.1-8,3.1-8l2.5,8.2c9.7-0.2,18.5-3.5,25.4-8.8C331.2,302.5,329,294.9,326.7,287.4z"/>
	</g>
	<g>
		<path class="st6" d="M300,261.1l-0.4,0.7c-2.1,3.3-5,6.1-8.3,8.1c-3.8,2.2-8.1,3.4-12.5,3.4c-0.8,0-1.7-0.1-2.5-0.1
			c-3.5-0.4-6-1.6-7.6-3.6c-1.8-2.3-2.3-5.5-1.3-8.7c0.4-1.2,0.9-2.2,1.4-3.2c2-0.2,3.2-0.1,3.2-0.1c1.8,0,3.5,0,5.2,0
			c5.3,0.1,10.5,0.6,15.5,1.7c1.6,0.3,3.1,0.7,4.7,1.1C298.2,260.7,299.1,260.9,300,261.1z"/>
	</g>
	<g>
		<path class="st17" d="M270.6,268c1.4,1.7,3.7,2.4,5.9,2.6c4.6,0.5,9.4-0.6,13.5-2.9c3-1.8,5.6-4.3,7.4-7.2
			c-1.6-0.4-3.2-0.7-4.7-1.1c-6.6-1.5-13.6-1.9-20.7-1.7c-0.9,1.3-1.6,2.6-2.1,4.1C269.1,263.8,269.2,266.3,270.6,268z"/>
	</g>
	<g>
		<path class="st20" d="M303.6,296.9c2.2,6.8,5.4,13.2,6,20.5c0.2,2.2-3.2,2.2-3.4,0c-0.6-6.9-3.8-13.1-5.9-19.6
			C299.6,295.7,302.9,294.8,303.6,296.9z"/>
	</g>
	<g>
		<g>
			<path class="st20" d="M242,307.4c4.9-8.1,8.3-16.8,10.3-26c0.4-2.1-2.8-3-3.2-0.9c-1.9,9-5.1,17.4-9.9,25.2
				C238,307.6,240.9,309.2,242,307.4L242,307.4z"/>
		</g>
	</g>
	<g>
		<path class="st11" d="M317.6,226.8c-5.2,5.6-10.4,11.3-15.5,16.9c-1.9,2.1-4,4.3-6.6,5.5c-2.6,1.2-6,1.3-8.1-0.7
			c6.1-5.6,12.3-10.7,18.5-16.3c1.7-1.5,3.3-3,5.3-4.1C313,227.2,315.4,226.3,317.6,226.8z"/>
	</g>
	<g>
		<path class="st17" d="M295.2,250.5c-0.6,3-0.8,6-0.5,9.1c0.1,1,0.2,2.1,0.4,3.1c-7.5,0-15.1-1.6-22-4.8c0.5-0.7,0.9-1.5,1.3-2.3
			l0,0c0.5-0.9,1-1.9,1.4-2.8c0.3-0.7,0.6-1.5,0.9-2.2c0.1-0.3,0.2-0.6,0.3-1c0.2-0.4,0.3-0.8,0.4-1.2c0.2-0.5,0.3-1.1,0.5-1.6
			c0.2-0.7,0.4-1.4,0.5-2.2c0.2-0.8,0.3-1.6,0.4-2.5c0.1-0.9,0.2-1.7,0.3-2.6c4.5-4.7,12.3-6.2,19.6-5.2c1.4,0.2,2.8,0.5,4.2,0.9
			c-1.4,1.5-2.6,3.1-3.6,4.8c-1,1.7-1.9,3.4-2.6,5.3c-0.6,1.6-1.1,3.3-1.5,5C295.3,250.4,295.3,250.4,295.2,250.5z"/>
	</g>
	<g>
		<path class="st21" d="M296.3,240c-5.5,14.3-21.8,15.6-21.8,15.6c0.5-0.9,1-1.9,1.4-2.8c0.3-0.7,0.6-1.5,0.9-2.2
			c0.1-0.3,0.2-0.6,0.3-1c0.2-0.4,0.3-0.8,0.4-1.2c0.2-0.5,0.3-1.1,0.5-1.6c0.2-0.7,0.4-1.4,0.5-2.2c0.2-0.8,0.3-1.6,0.4-2.5
			L296.3,240z"/>
	</g>
	<g>
		<path class="st22" d="M293.2,203.6c-5.6,4.1-8.5,11.6-7,18.4c2.6-4.4,5.6-8.7,8.2-13.1c0.6-0.9,1.1-1.9,1.1-3
			C295.5,204.7,294.1,202.9,293.2,203.6z"/>
	</g>
	<g>
		<path class="st17" d="M269.1,233.3c-0.2,0.5-0.4,1-0.4,1.5c-1,4.7,2.5,9.9,7.1,11.6c5.1,2,10.9,0.6,15.8-1.8
			c4.9-2.5,9.3-6.1,12.7-10.4c2.8-3.5,4.9-7.6,6.2-11.8c-4.4-6.3-10.4-14.1-17.7-16.5c-1.2,3.5-4.5,8.9-6.7,11.8
			c-2.2,2.9-4.9,5.5-7.9,7.6c-2.2,1.5-4.7,2.9-6.6,4.7C270.5,230.8,269.6,232,269.1,233.3z"/>
	</g>
	<g>
		<g>
			<path class="st23" d="M282.8,230.2c-0.1,0.3-1.8-0.2-2.4-2.2c-0.6-2,0.6-3.4,0.9-3.1c0.3,0.2-0.1,1.4,0.3,2.8
				C281.9,229.1,283,229.9,282.8,230.2z"/>
		</g>
	</g>
	<g>
		<path class="st11" d="M302.6,236.3c-0.8-2.7-0.6-5.7,0.5-8.3c1.2-2.6,3.3-4.7,6-6c-5-0.8-10-2.1-13.9-5.3
			c-3.9-3.1-6.4-8.2-5.1-12.8c0.7-2.4,2.3-4.5,4.3-6.2c2-1.7,4.3-3,6.5-4.3c3.6,3.3,6.7,7.3,10,10.9c1.3,1.4,2.6,2.7,3.4,4.4
			c0.8,1.7,1,3.7,0.1,5.2c7.6,5.3,8.2,9.5,5.1,13c-1.8,2-4.4,3.1-6.9,4.2C309,232.8,306.2,234.7,302.6,236.3z"/>
	</g>
	<g>
		<path class="st17" d="M302.2,235.1c0.4-1,1.6-1.6,2.7-1.3c1.1,0.3,1.9,1.3,2.1,2.4c0.2,1.1-0.1,2.2-0.8,3.2
			c-0.6,0.9-1.5,1.6-2.5,2.2c-1.4,0.9-3,1.5-4.7,1.3c-1.6-0.2-3.2-1.3-3.5-2.9C298.2,238.8,301.3,237.9,302.2,235.1z"/>
	</g>
	<g>
		<path class="st24" d="M351.8,426.3c-0.1,0,0,0-0.1,0c0.5,0.9-0.7,2.9-1.8,2.2c-0.2-0.1-0.4-0.3-0.6-0.4c0,0,0,0.1,0,0.1
			c0,0.3-0.4,0.9-0.7,1c-0.3,0.1-0.6,0-1,0c-4.1-0.7-6.4-1.3-9.6-2.2c-0.9-0.2-1.9-0.5-3-1c-0.1-0.1-0.3-0.1-0.4-0.2h0.1
			c0,0,0,0-0.1,0c-0.7-0.3-1.5-0.6-2.3-0.4c-1.3,0.5-1.3,2.3-1,3.6c0.3,1.3,0.5,3.1-0.7,3.8c-3.8-5.5-6.1-11.8-6-18.5
			c3.4,0,5.7,0.2,9.1,0.2c3.3,0.8,5.7,1.6,8.1,2.7c4.2,1.4,5.8,1.9,9.6,4.3c1.1,0.7,0.3,1.6-0.7,1.6
			C350.6,423.2,355,425.6,351.8,426.3z"/>
	</g>
	<g>
		<path class="st25" d="M170.8,326.8c-3.3-3.8-4.3-8.8-5.2-13.6c-0.3-1.6-2.8-0.9-2.5,0.7c1,5.3,2.2,10.6,5.9,14.8
			C170,329.9,171.9,328.1,170.8,326.8z"/>
	</g>
	<g>
		<path class="st11" d="M298,226.1c-0.8-1.4-1.5-2.8-2.1-4.3c-0.5-1.1-2.3-0.6-1.9,0.5c0.7,1.7,1.4,3.3,2.3,4.8
			C296.9,228.1,298.6,227.2,298,226.1z"/>
	</g>
	<g>
		<path class="st11" d="M290.4,216.8c-1.1-0.3-2-0.8-2.9-1.4c-0.4-0.3-1.1-0.1-1.3,0.3c-0.3,0.5-0.1,1,0.3,1.3
			c1,0.7,2.2,1.3,3.4,1.6C291,219,291.6,217.2,290.4,216.8z"/>
	</g>
	<g>
		<path class="st21" d="M223.2,319.8c-2.5-2.3-5.1-4.4-7.9-6.3c-0.7-0.5-1.4,0.7-0.7,1.2c2.7,1.8,5.3,3.8,7.7,6.1
			C222.8,321.4,223.8,320.4,223.2,319.8z"/>
	</g>
	<g>
		<path class="st26" d="M281.3,236.1c-0.4-0.5-0.5-1.1-0.9-1.6c-0.4-0.5-0.9-1.1-1.4-1.5c-1-0.8-2.3-1.6-3.5-2.1
			c-0.5-0.2-1,0.5-0.4,0.8c1.1,0.5,2.2,1.2,3.1,1.9c0.5,0.4,1,0.9,1.4,1.3c0.5,0.5,0.7,1.2,1,1.8C280.9,237,281.7,236.6,281.3,236.1
			z"/>
	</g>
	<g>
		<path class="st27" d="M294.3,229.5c-1.9-0.1-4.4-0.8-3.4-2.9c0.2-0.5-0.6-0.7-0.8-0.2c-1.3,2.6,1.6,3.8,4.1,3.9
			C294.7,230.3,294.8,229.6,294.3,229.5z"/>
	</g>
	<g>
		<path class="st27" d="M285.1,222.2c-0.5-0.1-0.9-0.2-1.3-0.5c-0.1-0.1-0.3-0.2-0.2-0.3c0-0.2,0.3-0.4,0.4-0.5
			c0.3-0.6-0.7-1.2-0.9-0.5c-0.1,0.3-0.4,0.5-0.5,0.9c-0.1,0.4,0.1,0.8,0.4,1c0.6,0.7,1.4,0.9,2.3,1
			C285.8,223.4,285.8,222.3,285.1,222.2z"/>
	</g>
	<g>
		<path class="st21" d="M325.1,351.2c-1.3-1.2-2.7-2.3-3.8-3.6c-1.1-1.2-1.9-2.6-2.9-3.9c-0.7-0.9-2,0.4-1.3,1.3
			c1,1.3,1.8,2.7,2.9,3.9c1.1,1.3,2.5,2.4,3.8,3.6C324.7,353.2,326,352,325.1,351.2z"/>
	</g>
</g>
</svg>
