<?xml version="1.0" encoding="utf-8"?>
<!-- Generator: Adobe Illustrator 22.0.1, SVG Export Plug-In . SVG Version: 6.00 Build 0)  -->
<svg version="1.1" id="Слой_1" xmlns="http://www.w3.org/2000/svg" xmlns:xlink="http://www.w3.org/1999/xlink" x="0px" y="0px"
	 viewBox="0 0 583 577" style="enable-background:new 0 0 583 577;" xml:space="preserve">
<style type="text/css">
	.st0{fill:#F4E8C7;}
	.st1{fill:url(#SVGID_1_);}
	.st2{fill:url(#SVGID_2_);}
	.st3{fill:url(#SVGID_3_);}
	.st4{fill:#DC3E65;}
	.st5{fill:#DC4361;}
	.st6{fill:url(#SVGID_4_);}
	.st7{fill:url(#SVGID_5_);}
	.st8{fill:#F3D693;}
	.st9{fill:#FFFFFF;}
	.st10{fill:url(#SVGID_6_);}
	.st11{fill:#AE2436;}
	.st12{fill:url(#SVGID_7_);}
	.st13{fill:url(#SVGID_8_);}
	.st14{fill:url(#SVGID_9_);}
	.st15{fill:#3F4876;}
	.st16{fill:url(#SVGID_10_);}
	.st17{fill:#8E9092;}
	.st18{fill:#6771BC;}
	.st19{fill:#EBCF81;}
	.st20{fill:#4853A0;}
	.st21{fill:url(#SVGID_11_);}
	.st22{fill:#C9752B;}
	.st23{fill:#BABDCB;}
	.st24{fill:url(#SVGID_12_);}
	.st25{fill:url(#SVGID_13_);}
	.st26{fill:#F0F0F0;}
	.st27{fill:#D3B66C;}
	.st28{fill:#72B39F;}
</style>
<g>
	<circle class="st0" cx="307.4" cy="311" r="268.1"/>
	
		<linearGradient id="SVGID_1_" gradientUnits="userSpaceOnUse" x1="71.5205" y1="104.8618" x2="201.9928" y2="235.334" gradientTransform="matrix(0.8431 -0.5377 0.5377 0.8431 -65.8784 85.9936)">
		<stop  offset="0" style="stop-color:#BCF7E7"/>
		<stop  offset="0.6231" style="stop-color:#72B39F"/>
	</linearGradient>
	<path class="st1" d="M172.8,126c-15.1-6.6-12.9,25.2-11.7,36.6c-10.9-14.6-21.1-26.1-30.3-35.3c6-6.6,20.2-24.5,4.2-30.2
		c-11.2-4-9.3,16.4-7.7,26.8c-9.4-8.9-17.7-15.3-24.7-19.9c-5.3-11.2-21.9-41-38.3-22.4c-13.9,15.7,31.4,24.7,39,26.1
		c6.9,4.7,15.1,11.2,24.2,20c-8.6-1.7-31.7-4.6-28.2,12.1c2.8,13.6,24.6-5.3,30.1-10.3c9.2,9.1,19.3,20.5,30.1,35
		c-11.7-3.2-47.2-11-43.7,14.7c2.8,20.5,37.3-5.6,45.6-12.2c1.9,2.6,3.8,5.2,5.7,8c4.3,6.2,10.3,14.2,16.6,22.5
		c-8.7-1.7-31.5-4.5-28,12.1c2.8,13.3,23.7-4.5,29.7-9.9c14.5,18.9,29.9,38.1,30.2,38.4l2-1.6c-0.2-0.3-16.1-20-30.7-39.1
		c5.8-6.3,20.8-24.7,4.5-30.6c-11.1-3.9-9.4,15.8-7.7,26.4c-5.5-7.2-10.6-14.1-14.5-19.6c-2.1-2.9-4.1-5.8-6.1-8.5
		C169.5,159.4,194,135.3,172.8,126z"/>
	<g>
		
			<linearGradient id="SVGID_2_" gradientUnits="userSpaceOnUse" x1="499.7938" y1="386.2116" x2="562.4907" y2="386.2116" gradientTransform="matrix(0.9999 -1.036471e-02 1.036471e-02 0.9999 6.4192 7.611)">
			<stop  offset="0" style="stop-color:#DD4B5B"/>
			<stop  offset="1" style="stop-color:#E27D34"/>
		</linearGradient>
		<path class="st2" d="M572.5,348.1c-38-13.8-64.8,76.6-61.6,81.8c4.8-7.5,11.9-18.5,22.3-34.6C550.5,368.4,564.3,354.7,572.5,348.1
			z"/>
		
			<linearGradient id="SVGID_3_" gradientUnits="userSpaceOnUse" x1="488.9252" y1="391.8086" x2="563.0057" y2="391.8086" gradientTransform="matrix(0.9907 0.136 -0.136 0.9907 74.5797 -69.1511)">
			<stop  offset="0" style="stop-color:#DD4B5B"/>
			<stop  offset="1" style="stop-color:#E27D34"/>
		</linearGradient>
		<path class="st3" d="M526.8,395c-12.3,14-20.8,23.8-26.6,30.4c13-1.5,98.1-45,80.3-64.9c-2.5-2.8-5-4.9-7.6-6.5
			C564.1,359.2,548.2,370.6,526.8,395z"/>
	</g>
	<g>
		<path class="st4" d="M495.6,423.2c23-4.2,59.9-8.5,72.9-10C558.5,383.6,501.2,416.6,495.6,423.2z"/>
		<path class="st5" d="M562.7,419.4c-0.1-0.7-0.2-1.3-0.3-1.9c-13.1,0.6-50.8,2.4-74,5C492.7,426.9,566.3,446.8,562.7,419.4z"/>
	</g>
	<g>
		
			<linearGradient id="SVGID_4_" gradientUnits="userSpaceOnUse" x1="-264.2395" y1="142.586" x2="-201.5427" y2="142.586" gradientTransform="matrix(-0.865 0.5018 -0.5018 -0.865 -93.6738 575.3676)">
			<stop  offset="0" style="stop-color:#DD4B5B"/>
			<stop  offset="1" style="stop-color:#E27D34"/>
		</linearGradient>
		<path class="st6" d="M29.1,385.4c39.9-6.7,18.6-98.6,13.3-101.6c-0.5,8.9-1.2,21.9-2.3,41.1C38.2,356.9,33,375.6,29.1,385.4z"/>
		
			<linearGradient id="SVGID_5_" gradientUnits="userSpaceOnUse" x1="-302.5241" y1="262.548" x2="-228.4437" y2="262.548" gradientTransform="matrix(-0.9291 0.3699 -0.3699 -0.9291 -115.1554 675.7509)">
			<stop  offset="0" style="stop-color:#DD4B5B"/>
			<stop  offset="1" style="stop-color:#E27D34"/>
		</linearGradient>
		<path class="st7" d="M45.7,322.1c3.8-18.3,6.4-30.9,8.2-39.6C43.3,290.2-9.3,370,16,378.5c3.5,1.2,6.8,1.8,9.8,1.9
			C31,371.6,39.1,353.9,45.7,322.1z"/>
	</g>
	<g>
		<path class="st4" d="M59,282.1c-18,15-47.9,37-58.5,44.7C23.7,347.6,57.4,290.6,59,282.1z"/>
		<path class="st5" d="M2.5,318.6c0.4,0.5,0.8,1,1.2,1.5c11.1-6.9,43-27.1,61.9-40.8C59.7,277.5-14.2,296.5,2.5,318.6z"/>
	</g>
	<path class="st8" d="M450.6,97.8c-3,5.6-6.2,11.6-9.7,17.9c-3.3,6-6.7,12.4-10.3,19.1l-24.5-38.7c5.2-19.3,4.7-40.6,7.9-53.9
		c0.6-2.7,2.4-7.4,5.2-12.6L460.6,70C458.5,79.6,455.3,89.1,450.6,97.8z"/>
	<path class="st8" d="M465.9,3.9c23.1,6.3,32.2,24.4,34.5,44.2l-36,18.6C469.5,40.2,467.1,14,465.9,3.9z"/>
	<path class="st8" d="M443.6,117.2c3.4-6.3,6.7-12.3,9.7-17.9c4.8-9,8.1-18.8,10.2-28.7l37.2-19.2c0.7,9.2,0.2,18.7-1.1,27.4
		c-2.1,14.6-9.8,30-18.3,44.3c-18.1,2.8-39.1,9.3-47.4,12C437.3,128.9,440.6,122.9,443.6,117.2z"/>
	<path class="st8" d="M461.3,66.4l-40.6-39.6c7.6-13,21.4-27.9,41-24c0.3,0.1,0.6,0.2,1,0.2C463.9,12.1,466.6,39.1,461.3,66.4z"/>
	<path class="st8" d="M393.7,208.9c-4.1-11.4-16.7-47.2-22.3-67.7c8.4-6.6,16.4-12.6,23.4-21.4c4.7-5.8,7.8-12.6,10.1-19.8l24,37.9
		C417.2,160,404.4,184.7,393.7,208.9z"/>
	<path class="st8" d="M333.7,188.2c10.6-23.5,23.1-35.1,35.1-44.8c6.5,23.6,21.2,64.3,23.1,69.7c-5.7,13.3-10.8,26.3-14.7,38.7
		c-26.5-5.2-50.6-10.1-52-10.3C322.3,240.9,314.9,229.7,333.7,188.2z"/>
	<path class="st8" d="M431.8,139.1c3.9-1.3,27.2-9,47.4-12.5c-9.8,16-20.2,30.7-24.4,41.6c-5.5,13.9-6.6,23-5.5,32.1
		c-16.8,8.3-44.9,10.6-53.3,11.1C406.8,186.8,419.8,161.6,431.8,139.1z"/>
	<path class="st8" d="M449.8,203.4c0.8,4.3,2,8.7,3.4,13.7c5,16.9-2.3,43.8-4.7,46.5c-1.3,1.5-36-4.9-68.3-11.2
		c3.8-12.1,8.7-24.8,14.3-37.8C400.7,214.2,430.9,212.4,449.8,203.4z"/>
	<path class="st9" d="M430.7,134.8c3.6-6.6,7-13,10.3-19.1c3.4-6.3,6.7-12.3,9.7-17.9c4.6-8.7,7.8-18.2,9.9-27.8l1.4,1.4l1.6-0.8
		c-2.2,9.9-5.4,19.7-10.2,28.7c-3,5.6-6.2,11.6-9.7,17.9c-3.1,5.7-6.4,11.7-9.7,18c-1,0.3-1.9,0.6-2.5,0.8L430.7,134.8z"/>
	<path class="st9" d="M464.4,66.7l-1.8,0.9l-1.2-1.2c5.3-27.3,2.6-54.4,1.4-63.3c1.1,0.2,2.1,0.5,3.2,0.8
		C467.1,14,469.5,40.2,464.4,66.7z"/>
	<path class="st9" d="M393.7,208.9c10.7-24.2,23.5-49,35.3-71l1.1,1.8l1.1-0.4c0,0,0.2-0.1,0.6-0.2c-12,22.5-25.1,47.7-35.8,72.3
		c-0.5,0-1,0.1-1.4,0.1C394.4,210.9,394.1,210,393.7,208.9z"/>
	<path class="st9" d="M392.1,213.6l0.4,1l1.1,0c0.1,0,0.5,0,1,0c-5.6,13-10.5,25.7-14.3,37.8c-1-0.2-2-0.4-3-0.6
		c3.9-12.4,8.9-25.4,14.7-38.7C392,213.3,392.1,213.5,392.1,213.6z"/>
	<path class="st9" d="M460.6,70l-41.4-40.4c0.5-0.9,1-1.8,1.5-2.8l40.6,39.6C461.1,67.6,460.9,68.8,460.6,70z"/>
	<path class="st9" d="M464.4,66.7l36-18.6c0.1,1.1,0.2,2.2,0.3,3.3l-37.2,19.2C463.9,69.3,464.1,68,464.4,66.7z"/>
	<path class="st9" d="M460.6,70c0.3-1.2,0.5-2.4,0.7-3.6l1.2,1.2l1.8-0.9c-0.2,1.3-0.5,2.6-0.8,3.8l-1.6,0.8L460.6,70z"/>
	<path class="st9" d="M429,137.9L405,100c0.4-1.3,0.8-2.6,1.2-3.9l24.5,38.7C430.1,135.8,429.6,136.8,429,137.9z"/>
	<path class="st9" d="M433.9,135.2c8.3-2.7,29.3-9.2,47.4-12c-0.7,1.1-1.4,2.3-2.1,3.4c-20.2,3.5-43.6,11.2-47.4,12.5
		C432.5,137.8,433.2,136.5,433.9,135.2z"/>
	<path class="st9" d="M430.1,139.7l-1.1-1.8c0.6-1,1.1-2.1,1.7-3.1l0.8,1.2c0.6-0.2,1.5-0.5,2.5-0.8c-0.7,1.3-1.4,2.6-2.1,3.9
		c-0.3,0.1-0.5,0.2-0.6,0.2L430.1,139.7z"/>
	<path class="st9" d="M396,211.4c8.4-0.5,36.6-2.8,53.3-11.1c0.1,1,0.3,2.1,0.5,3.1c-18.9,9-49.1,10.9-55.2,11.2
		C395.1,213.5,395.5,212.4,396,211.4z"/>
	<path class="st9" d="M392,213c-2-5.4-16.6-46.1-23.1-69.7c0.9-0.7,1.7-1.4,2.6-2.1c5.6,20.5,18.2,56.3,22.3,67.7
		C393.1,210.3,392.5,211.7,392,213z"/>
	<path class="st9" d="M394.6,211.5c0.4,0,0.8,0,1.4-0.1c-0.5,1-0.9,2.1-1.4,3.1c-0.5,0-0.9,0-1,0l-1.1,0l-0.4-1
		c0-0.1-0.1-0.3-0.2-0.5c0.6-1.4,1.2-2.7,1.8-4.1C394.1,210,394.4,210.9,394.6,211.5z"/>
	<linearGradient id="SVGID_6_" gradientUnits="userSpaceOnUse" x1="541.6565" y1="118.3638" x2="457.2334" y2="350.3143">
		<stop  offset="0" style="stop-color:#BCF7E7"/>
		<stop  offset="0.6231" style="stop-color:#72B39F"/>
	</linearGradient>
	<path class="st10" d="M553.3,122.8c-17.3-9.3-21.2,17.8-22,27.1c-3.4,5.4-7.2,11.9-11.2,19.2c-1.5-7.7-5.6-24.8-13-18.6
		c-10.4,8.7,5.8,18.1,11.6,21.2c-6.2,11.7-12.7,25.6-18.6,41.2c-2.3-9.1-9.2-31.9-18.3-23.1c-12.7,12.2,10.4,23,17.3,25.9
		c-3.3,9.1-6.4,18.7-9,28.9c0,0,0,0,0,0.1c-5-7.6-19.3-27.5-25.1-16.1c-7.8,15.4,16.4,18.2,24.3,18.7c-3.6,13.3-7.5,25.2-11.5,35.7
		c-3.2-7.8-13.9-31.5-21.9-21.1c-10.9,14.2,14.3,21.4,21.2,23.1c-5.6,14.5-11.2,26.4-16.2,35.6c-0.3-9.3-2.1-33.1-12.9-26.6
		c-15.2,9.3,5.6,25.1,11.5,29.1c-8,14.5-13.9,21.8-14,21.9l2.2,1.8c0.1-0.2,6-7.4,14-21.9c8.7,1.2,41.8,4.8,35.6-10.1
		c-7-16.6-24.1-3.4-32.6,4.7c4.7-8.9,9.8-20,15-33.3c7.5,2.5,40.9,12.8,37.3-3.3c-4.4-20.1-28.8-4.4-36.5,1.1
		c3.9-10.5,7.8-22.3,11.4-35.4c8.5,2.8,42.4,13,38.7-3.6c-4.6-20.9-29.9-4.8-38.1,1.1c0.1-0.3,0.1-0.5,0.2-0.8
		c2.7-10.4,5.9-20.3,9.3-29.5c8,2.6,40,12.2,36.5-3.4c-4.3-19.4-27.4-5-35.5,0.7c5.7-15,12-28.4,18-39.7c6.7,2.6,25.1,9,23.6-1.1
		c-1.7-11.8-14.7-6.3-21.7-2.5c3.8-7.1,7.5-13.3,10.8-18.5C542.3,146,566.3,129.8,553.3,122.8z"/>
	<rect x="288.7" y="132.2" class="st11" width="38.3" height="23.1"/>
	<linearGradient id="SVGID_7_" gradientUnits="userSpaceOnUse" x1="205.715" y1="411.1565" x2="408.7703" y2="208.1013">
		<stop  offset="0" style="stop-color:#EEF0FD"/>
		<stop  offset="1" style="stop-color:#F4F5FB"/>
	</linearGradient>
	<ellipse class="st12" cx="307.2" cy="309.6" rx="145.2" ry="142"/>
	<linearGradient id="SVGID_8_" gradientUnits="userSpaceOnUse" x1="307.2426" y1="310.6857" x2="469.1365" y2="310.6857">
		<stop  offset="0" style="stop-color:#DD4B5B"/>
		<stop  offset="1" style="stop-color:#E27D34"/>
	</linearGradient>
	<path class="st13" d="M307.2,148.8v26c41.4,0,78.4,18.5,103.4,47.7c20.3,23.7,32.5,54.5,32.5,88.1c0,75-60.8,135.8-135.8,135.8
		v14.4v11.7c89.4,0,161.9-72.5,161.9-161.9S396.7,148.8,307.2,148.8z"/>
	<linearGradient id="SVGID_9_" gradientUnits="userSpaceOnUse" x1="145.3488" y1="310.6857" x2="307.2426" y2="310.6857">
		<stop  offset="0" style="stop-color:#DD4B5B"/>
		<stop  offset="1" style="stop-color:#E27D34"/>
	</linearGradient>
	<path class="st14" d="M307.2,174.8v-26c-89.4,0-161.9,72.5-161.9,161.9s72.5,161.9,161.9,161.9v-11.7v-14.4
		c-33.6,0-64.4-12.2-88.1-32.5c-29.2-24.9-47.7-62-47.7-103.4C171.4,235.7,232.2,174.8,307.2,174.8z"/>
	<path class="st15" d="M307.2,180.5c-1.8,0-3.3,1.5-3.3,3.3v7.5v9.9c0,1.8,1.5,3.3,3.3,3.3s3.3-1.5,3.3-3.3v-10.7v-6.8
		C310.5,182,309,180.5,307.2,180.5z"/>
	<path class="st15" d="M246.7,209.9c0.5,1,1.8,1.3,2.7,0.7c1-0.5,1.3-1.8,0.7-2.7l-5.3-9.2c-0.5-1-1.8-1.3-2.7-0.7
		c-1,0.5-1.3,1.8-0.7,2.7L246.7,209.9z"/>
	<path class="st15" d="M367.8,411.5c-0.5-1-1.8-1.3-2.7-0.7c-1,0.5-1.3,1.8-0.7,2.7l5.3,9.2c0.5,1,1.8,1.3,2.7,0.7
		c1-0.5,1.3-1.8,0.7-2.7L367.8,411.5z"/>
	<path class="st15" d="M207.2,368.5c-0.5-1-1.8-1.3-2.7-0.7l-9.2,5.3c-0.1,0-0.1,0.1-0.2,0.1c-0.8,0.6-1.1,1.7-0.6,2.6h0
		c0.4,0.7,1.2,1.1,2,1c0.3,0,0.5-0.1,0.8-0.3l9.2-5.3C207.4,370.6,207.7,369.4,207.2,368.5z"/>
	<path class="st15" d="M407.3,252.9c0.5,1,1.8,1.3,2.7,0.7l9.2-5.3c1-0.5,1.3-1.8,0.7-2.7c-0.5-1-1.8-1.3-2.7-0.7l-9.2,5.3
		C407.1,250.7,406.8,252,407.3,252.9L407.3,252.9z"/>
	<path class="st15" d="M307.2,416.8c-1.8,0-3.3,1.5-3.3,3.3v17.4c0,1.8,1.5,3.3,3.3,3.3s3.3-1.5,3.3-3.3v-17.4
		C310.5,418.3,309,416.8,307.2,416.8z"/>
	<path class="st15" d="M413.4,310.7c0,1.8,1.5,3.3,3.3,3.3h17.4c1.8,0,3.3-1.5,3.3-3.3c0-1.8-1.5-3.3-3.3-3.3h-17.4
		C414.9,307.4,413.4,308.9,413.4,310.7z"/>
	<path class="st15" d="M201.1,310.3c-0.2-1.7-1.7-2.9-3.4-2.9h-9.8c0,0,0,0,0,0c-0.1,0.4-0.1,0.8-0.1,1.2c0-0.4,0.1-0.8,0.1-1.2
		c0,0,0,0,0,0h-7.4c-1.9,0-3.5,1.7-3.3,3.7c0.2,1.7,1.7,2.8,3.4,2.8h6.6c0,0,0,0,0,0c0,0,0,0,0,0c0,0,0,0,0,0h10.7
		C199.8,314,201.3,312.3,201.1,310.3z M187.5,310.7c0,0.4-0.1,0.7-0.1,1.1C187.4,311.4,187.4,311,187.5,310.7z"/>
	<path class="st15" d="M206.4,250.2l-9.2-5.3c-1-0.5-2.2-0.2-2.7,0.7c-0.5,1-0.2,2.2,0.7,2.7l9.2,5.3c1,0.5,2.2,0.2,2.7-0.7
		C207.7,252,207.4,250.7,206.4,250.2z"/>
	<path class="st15" d="M408.1,371.2l9.2,5.3c1,0.5,2.2,0.2,2.7-0.7c0.5-1,0.2-2.2-0.7-2.7l-9.2-5.3c-1-0.5-2.2-0.2-2.7,0.7
		C406.8,369.4,407.1,370.6,408.1,371.2z"/>
	<path class="st15" d="M249.5,410.8c-1-0.5-2.2-0.2-2.7,0.7l-5.3,9.2c-0.5,1-0.2,2.2,0.7,2.7v0c1,0.5,2.2,0.2,2.7-0.7l5.3-9.2
		C250.7,412.5,250.4,411.3,249.5,410.8z"/>
	<path class="st15" d="M372.3,197.9c-0.9-0.5-2-0.3-2.6,0.6c0,0.1-0.1,0.1-0.1,0.2l-5.3,9.2c-0.5,1-0.2,2.2,0.7,2.7
		c1,0.5,2.2,0.2,2.7-0.7l5.3-9.2c0.1-0.2,0.2-0.5,0.3-0.8C373.4,199.1,373,198.4,372.3,197.9z"/>
	<path class="st15" d="M318.6,248c5.5,0-2.2,81.9-13.6,79.7C291.3,325,313.3,248,318.6,248z"/>
	<path class="st15" d="M220.5,372.2c-3.2-4.4,84.8-61,89.6-50.5C316.1,334.3,223.6,376.5,220.5,372.2z"/>
	<linearGradient id="SVGID_10_" gradientUnits="userSpaceOnUse" x1="274.8934" y1="122.4897" x2="340.1562" y2="122.4897">
		<stop  offset="0" style="stop-color:#DD4B5B"/>
		<stop  offset="1" style="stop-color:#E27D34"/>
	</linearGradient>
	<path class="st16" d="M276.9,134.2c2,3.6,56.4,3.5,59.8,0.6c3.4-3,4.9-22.5,1.8-25.1c-3.2-2.6-58.2-1.7-61.4,0
		C273.9,111.3,274.5,129.9,276.9,134.2z"/>
	<rect x="315.1" y="472.7" class="st17" width="54" height="1.5"/>
	
		<rect x="367" y="420.6" transform="matrix(0.9976 -6.934439e-02 6.934439e-02 0.9976 -30.5498 26.59)" class="st17" width="1.5" height="65.4"/>
	<path class="st18" d="M397.4,353.5c-0.4,0.9,0.7,1.8,1.1,1.6c0.4-0.2,21.1-10.1,20.9-11c-0.2-0.9-0.4-1.6-1.2-1.5
		C417.4,342.8,397.9,352.6,397.4,353.5z"/>
	<path class="st19" d="M393.3,360.8c0.6,0.4,11.2-4,11.6-4.4c2.8-2.4,7-7,6.8-7.5c-0.3-0.4-8.7,4.2-8.8,3.8c-0.2-0.5,4.1-3.8,0-3.4
		c-0.4,0-11.5,8.3-10.9,8.7S392.4,360.2,393.3,360.8z"/>
	<path class="st15" d="M378.2,496.9c2.7-0.8-5.1-24.3-7.1-25.6c-2-1.3-4.8,1.4-5.8,2.9C363.6,476.8,371.3,498.9,378.2,496.9z"/>
	<path class="st15" d="M399.5,424.8c0,0,32.3,56.2,33.8,57.2c1.7,1.1,3-3.9,4.1-5.3c1-1.4-18.4-61.9-25-69.8
		c-4.1-4.9-54.2-20.9-56.2-20.9s-7.4,4.7-6.6,7.6c0.8,2.9,46.2,25.2,48.2,26.7C399.9,421.9,399.5,424.8,399.5,424.8z"/>
	<path class="st20" d="M335.2,403.2c0,0,7.6,13.5,23,15.1c15.4,1.5,24.9,2.4,24.9,2.4s-2,15.2-7.7,30.6c-6.7,18.2-9.2,21.7-9,24.2
		c0.3,3.2,5,3.9,6.1,3.4c1.5-0.6,38.5-56.7,37.3-65.5c-1.2-8.8-55.7-26.6-58-26.2S335.9,399.7,335.2,403.2z"/>
	<linearGradient id="SVGID_11_" gradientUnits="userSpaceOnUse" x1="326.0699" y1="360.8616" x2="365.4454" y2="360.8616">
		<stop  offset="0" style="stop-color:#DD4B5B"/>
		<stop  offset="1" style="stop-color:#E27D34"/>
	</linearGradient>
	<path class="st21" d="M332.7,406.3c4.2,3.4,6-9.5,15-14c9-4.5,14.1-2.6,15.7-4.1c1.6-1.5,3.3-63.6,0.7-67.2c-2.6-3.6-6.2-7-8.9-6
		c-8.7,3.1-24.3,20.7-27.3,48.1C324.9,390.6,325,400,332.7,406.3z"/>
	<path class="st19" d="M361.1,309.1l-5,6.7c0,0,0.3,2.6,1.5,4.4c2.2,3.5,4,2,4,2l4.1-4.7c0,0,2.8,2.4,6,0.4c3.2-2,8.9-7.1,7.4-9.5
		c-1.5-2.4-5.9-7.9-5.9-7.9l-7.9,0.7l-4.7,4.2L361.1,309.1z"/>
	<path class="st22" d="M378.5,310.3c1.8,0.8,8.7,3.5,10.2-1.8c3.4-11.4-9.6-10-10.3-10.3c-0.8-0.3-8.4-6.3-14.2-2.5
		c-5.9,3.9-9,15.4-2.9,15.7c0.9,0.1,1.7-6.6,4.3-7.2c2.6-0.6,1.9,2.4,2.9,2.9c1,0.5,3.3-2.6,4.5-2.7
		C374.1,304.5,375.5,309,378.5,310.3z"/>
	<path class="st4" d="M350.2,327.3c2.1-0.2,5.6,4.7,6.1,6c2.4,6.2,10.8,31.1,11.5,31.4c0.7,0.3,23.4-8.5,24.5-8.2
		c1.1,0.3,2.4,4.3,2.4,5.3c0,1.5-27.3,14.4-29.2,13.2c-1.9-1.3-13-7-17.9-23.7C343.3,337.2,345.5,327.9,350.2,327.3z"/>
	<path class="st15" d="M449.7,460.8c-2.7-0.9-19.2,16.4-16.7,22c1,2.1,3.6,1.1,5.3,0.2C439.9,482.1,456.7,463.3,449.7,460.8z"/>
	<path class="st23" d="M322.2,412.2c-1.9,1.5-2,7.6,0.5,8.3c2.5,0.7,48.4,1.6,50-0.5c1.6-2.1,1.6-5.6-0.5-6.9
		C370,411.7,325.4,409.6,322.2,412.2z"/>
	<path class="st17" d="M312.7,487c-0.3-6.1,3.2-23.3,6.5-39.9c2.7-13.6,5.5-27.6,5-29.9c-0.7-2.7-2.5-4.2-4.7-5.8
		c-2.4-1.9-5.2-4.1-6.9-8.5c-3.3-8.3,2.4-29,2.7-29.9l1.6,0.4c-0.1,0.2-5.9,21.1-2.7,28.9c1.6,4,4,5.9,6.4,7.8
		c2.3,1.8,4.4,3.5,5.2,6.7c0.6,2.5-1.5,13.2-5,30.6c-3.2,15.7-6.7,33.6-6.4,39.5L312.7,487z"/>
	<path class="st23" d="M316.8,362.6c-3,2.5-1.7,21.5,0.7,23.4c2.4,1.9,5.9,1.2,8.5,0c2.5-1.2,3.6-5.1,3.6-12
		c0-5.2-1.3-10.3-3.4-11.4S320.7,359.4,316.8,362.6z"/>
	<path class="st22" d="M126.7,252.7c-13.1,0.1-13.5,23.8-14.5,25.3c-1,1.5-13.5,12.8-14.8,23.8c-1.4,10.9,10.2,10.7,10.2,10.7
		l27.4-25.4c0,0,4-2.4,6.4-5.9C143.6,277.5,139.8,252.6,126.7,252.7z M130,262c1.5,4.4,2.9,8.7,8.7,10.2
		C132.9,270.7,131.5,266.3,130,262z"/>
	<path class="st15" d="M119,480.6c0,0-14,9.2-12.4,11.2c2.9,3.7,17-5.1,17.3-6.6c0.4-1.4,0.8-4.3-0.4-4.6
		C122.3,480.2,119.9,479.1,119,480.6z"/>
	<path class="st15" d="M145.6,482.7c-1.1,1-1.2,6.4,0,6.7c1.2,0.2,15.2,7.6,16.8,4.5c1.6-3.2-11.4-11.4-12.4-11.2
		C149,482.9,145.6,482.7,145.6,482.7z"/>
	<linearGradient id="SVGID_12_" gradientUnits="userSpaceOnUse" x1="136.8302" y1="484.0425" x2="136.8302" y2="361.0574">
		<stop  offset="0" style="stop-color:#DD4B5B"/>
		<stop  offset="1" style="stop-color:#E27D34"/>
	</linearGradient>
	<path class="st24" d="M116.5,363.4c0,0,1.6,61.7,1.5,64.3c-0.2,2.5,0.9,52.9,1.3,53.5c0.3,0.4,3.9,1.9,4.5,0.5
		c0.5-1.4,11.7-92.8,12.4-94.2c0.7-1.5,2.7-0.4,2.7-0.4s5.7,40.4,5.9,44.4c0.2,4,0.3,51.7,1.1,52.1c0.8,0.4,3.7,0.8,4.2,0.2
		c0.5-0.6,7.5-43.9,7.1-67c-0.4-23.1-1.7-51.4-2-53.4C154.8,361.4,118.9,359.4,116.5,363.4z"/>
	<linearGradient id="SVGID_13_" gradientUnits="userSpaceOnUse" x1="115.4546" y1="366.728" x2="156.2985" y2="366.728">
		<stop  offset="0" style="stop-color:#BCF7E7"/>
		<stop  offset="0.6231" style="stop-color:#72B39F"/>
	</linearGradient>
	<path class="st25" d="M116,364.2c0,0-1,3.4-0.3,4.4c0.5,0.8,10.8,3.7,19.2,3.2c8.1-0.5,20.5-3.1,21.3-4.7c0.8-1.5-1.1-5.7-1.7-5.7
		C153.8,361.5,116,364.2,116,364.2z"/>
	<path class="st19" d="M107.5,316.1c0,0-6.1,23.3-6.2,27.9c-0.1,4.6,0.2,24.9,1.1,25.2c0.9,0.4,2.5,0,2.5,0s2.4-23.2,2.5-25.1
		c0.1-1.6,6.3-25.7,6.3-26.2C113.8,317.4,107.5,316.1,107.5,316.1z"/>
	<path class="st26" d="M106.6,317.1c0.2,1,5.6,4.6,6.8,4.1c1.2-0.5,2.7-10.2,2.7-10.2s3.7,6.9,4.1,23.7c0.2,8-1.4,12.4-3,16.3
		c-2,5-3.6,11-2.6,12.2c2.3,2.8,16.2,4.7,20.9,4.2c5.3-0.5,17.4-2.4,18.3-4.7c0.4-1,3.3-5.4,0.5-14.5c-1.2-3.9-3-6.7-4.1-11.2
		c-2.7-11.5-2.5-23.9-2.7-24.3c-0.4-1,1,0.8,1,0.8s7.9-0.8,8.4-2.5c0.5-1.7-12.6-25.1-15.8-27.2c-3.2-2.1-20.6-1.6-22.2,0
		C117.4,285.4,104.2,304.3,106.6,317.1z"/>
	<path class="st27" d="M124.2,272.1v11.3c0,0,1,2.8,3.9,2.5c2.9-0.3,3.2-3.4,3.2-3.4l-0.3-10.3H124.2z"/>
	<path class="st23" d="M125.1,295.9c-0.7,0.5-1.9,21.5-0.9,22c1,0.5,9.5,1.3,10.2,0.6c0.7-0.7,0.7-21.9,0-22.6
		C133.7,295.2,126.1,295.2,125.1,295.9z"/>
	<path class="st19" d="M124,307.1c-0.9,1.9,6,10.2,9,10.3c3,0.1,5.7,2.9,5.7,2.9s24.2,19.5,25.4,16.3c1.2-3.2-5.8-25.1-7.4-25.6
		c-1.6-0.5-7.8,1.9-7.7,2.3c0.1,0.5,4.3,9.8,4.3,9.8s-15.9-10-16.3-11.2c-0.4-1.3-1.4-5.6-2.1-5.6c-0.7,0,0.3,5.3-0.2,5.2
		C134.2,311.3,125.6,303.8,124,307.1z"/>
	<path class="st19" d="M103.5,387.2c-1.8,0.1-1.4-19.2-1.4-19.2l2.3-0.2c0,0,5.9,8,5.9,9.7c0,1.6-4.4-3.4-4.4-3.4
		S106,387.1,103.5,387.2z"/>
	<path class="st19" d="M130.5,263.4c-2.8,3.7-6.7,5.9-11.4,7.9c0.7,3.8,4.1,6.7,8.1,6.7c4.2,0,7.7-3.2,8.2-7.2
		C132.7,269,131.5,266.2,130.5,263.4z"/>
	<path class="st28" d="M124.8,289.5c0.8,1.3,2.8-3.6,2.8-3.6s-2.9-4.2-4.9-4.2C121.9,281.7,122,284.7,124.8,289.5z"/>
	<path class="st28" d="M130.7,289.5c-0.8,1.5-3.1-3.6-3.1-3.6s3.3-4.2,5.4-4.2C133.9,281.7,132.6,286.2,130.7,289.5z"/>
</g>
</svg>
