<?xml version="1.0" encoding="utf-8"?>
<!-- Generator: Adobe Illustrator 22.0.1, SVG Export Plug-In . SVG Version: 6.00 Build 0)  -->
<svg version="1.1" id="Слой_1" xmlns="http://www.w3.org/2000/svg" xmlns:xlink="http://www.w3.org/1999/xlink" x="0px" y="0px"
	 viewBox="0 0 333 653" style="enable-background:new 0 0 333 653;" xml:space="preserve">
<style type="text/css">
	.st0{fill:#A0C2C9;}
	.st1{fill:#717171;}
	.st2{fill:#C88030;}
	.st3{fill:#808080;}
	.st4{fill:#DD902F;}
	.st5{fill:#B77230;}
	.st6{fill:#E3A552;}
	.st7{fill:#F1CEA5;}
	.st8{fill:#EEBD8F;}
	.st9{fill:#DEBD4C;}
	.st10{fill:#E7D07C;}
	.st11{fill:#C26562;}
	.st12{fill:#CB6C63;}
	.st13{fill:#C7DEDB;}
	.st14{fill:#5F978D;}
	.st15{fill:#71A59E;}
	.st16{fill:#C6CACC;}
	.st17{fill:#A1A7AA;}
	.st18{fill:#DCDEE0;}
	.st19{fill:#677076;}
	.st20{fill:#5A6167;}
	.st21{fill:#A64C4C;}
	.st22{fill:#EBB282;}
	.st23{fill:#BC5753;}
	.st24{fill:#683F28;}
	.st25{fill:#7E5439;}
	.st26{fill:#D58D70;}
	.st27{fill:#60544F;}
	.st28{fill:#8E664A;}
	.st29{fill:#FFFFFF;}
	.st30{fill:#32373B;}
	.st31{fill:#3B3D3F;}
	.st32{fill:#3A342F;}
	.st33{fill:#E3E3E3;}
</style>
<g>
	<ellipse class="st0" cx="146.5" cy="626.4" rx="106.7" ry="14.8"/>
	<g>
		<g>
			<g>
				<g>
					<polygon class="st1" points="294.5,443.2 291.6,443.2 289.9,434.9 292.2,434.9 					"/>
					<polygon class="st1" points="247.6,434.8 247.6,442 244.5,442 246.1,434.8 					"/>
					<polygon class="st2" points="329.4,467.4 332.1,527.3 327.3,532.4 212.5,533.2 207.6,527 211,464.3 					"/>
					<path class="st3" d="M332.9,522.2l0,6.4l-4.7,4.9l-6.2,0C322,533.5,321.4,523.4,332.9,522.2z"/>
					<path class="st3" d="M205.2,527l6.8,7.7l6.7,0c0,0-2.5-10.8-12.4-14.5L205.2,527z"/>
					<polygon class="st4" points="326.6,470.9 329.3,520.5 326.5,520.5 324.9,470.9 					"/>
					<polygon class="st4" points="216.2,472.3 212,521.9 209.6,520.2 214.2,472.3 					"/>
					<polygon class="st4" points="322,527.7 321.1,529.8 219.8,530.9 218.8,529.2 					"/>
					<polygon class="st5" points="328.3,470.9 328.3,475.1 279.6,499.9 259,499.9 212.1,475.7 212.9,468.6 					"/>
					<polygon class="st4" points="329.5,444.4 209.7,441.9 206.5,470.6 261.5,491.2 280,491.2 332.2,472.6 					"/>
					<polygon class="st6" points="326.5,446.1 327.6,451.2 212.2,451.2 212.2,443.2 					"/>
					<polygon class="st2" points="277.4,493.6 279.8,483 262.6,483 264.3,493.7 					"/>
					<polygon class="st3" points="276.5,506.7 279.8,492.7 261.5,492.6 262.6,506.7 					"/>
					<polygon class="st4" points="280.8,496.3 280.8,501.5 260,501.4 260,497.2 					"/>
					<polygon class="st3" points="308.2,445.6 308.2,440.9 289.9,442.1 289.9,445 					"/>
					
						<rect x="240.2" y="434.1" transform="matrix(2.478533e-03 -1 1 2.478533e-03 -201.1119 683.2815)" class="st3" width="3.4" height="16.7"/>
					<polygon class="st4" points="289.9,436.4 283.4,428.9 257.2,428.8 249,436.3 243.7,436.2 255.1,425.4 285.1,423.4 294.5,435.8 
											"/>
				</g>
				<g>
					<path class="st7" d="M267.5,434.7c0,0-1.5,1.7-3.9,0.7c-2.4-1-1.5-2.8-1.5-2.8s-1.1,1.8-4,1c-2.9-0.8-1.5-5.6-0.5-8.3
						c0,0-3.3-5.6-0.5-9.9c0.9-1.4,2.2-2.7,3.5-3.9c0.2-0.3,0.4-0.7,0.7-1c2.2-2.9,4-4.4,4-4.4c3.2-4.8,3.7-10.5,3.7-10.5l14.7,3.7
						c0,0-2.7,6.9-1.3,12.3c1.4,5.5,1.8,11.6-1.6,17.2c0,0-0.6,2.3-2.1,3.6c-0.2,0.4-0.5,0.9-0.7,1.3c-0.2,0.4-0.4,0.9-0.7,1.3
						c0,0-1,2.1-4,0.6c0,0-1.4,2-4,1.2C266.7,436.1,267.5,434.7,267.5,434.7z"/>
					<path class="st8" d="M257.3,430.4c0,0,3,2.9,5.1,0.9c0,0,2.2,2.9,5.8,1.4c0,0,1.4,3.5,5.3,1.3c0,0,2.3,1.3,3.6-0.4
						c0,0,0.2,2.7-3.3,1.8c0,0-1.5,1.4-4.1,0.8c0,0-1.8-1.1-1.8-2.3c0,0-0.8,1.8-3.6,0.9s-1.9-2.7-1.9-2.7s-0.7,1.8-3.5,1
						C256,432.4,257.3,430.4,257.3,430.4z"/>
					<path class="st8" d="M257.9,423.9c0,0,1.8-4.2,1.6-6.3c0,0-0.7,2.6-2.4,1.9C255.3,418.8,256.8,422.3,257.9,423.9z"/>
				</g>
			</g>
			<g>
				<g>
					<g>
						<path class="st9" d="M285.6,389.2l-0.7,10.6c-0.1,1-0.9,1.7-1.9,1.6l-14.4-0.8c-0.5,0-1-0.3-1.4-0.7s-0.5-0.9-0.4-1.5
							l1.2-11.3L285.6,389.2z"/>
						<path class="st10" d="M284.6,389.9l-0.6,8.3c-0.1,0.8-0.6,1.3-1.2,1.3l-9-0.4c-0.3,0-0.6-0.2-0.8-0.5
							c-0.2-0.3-0.3-0.7-0.3-1.1l1-8.8L284.6,389.9z"/>
					</g>
				</g>
				<path class="st11" d="M264.5,389.4l22.2,1.8c0,0,6.7-40.5-26-84.1c-24.2-32.2-68.8-37.8-68.8-37.8s-5.8,10.1-5.2,16.9
					c1.7,19.7,6.1,21.5,6.1,21.5S262,316.5,264.5,389.4z"/>
			</g>
		</g>
		<path class="st12" d="M71.5,277c0,0,30.3-11,45.4-12.3c0,31.4-1.5,39.4-1.5,39.4l-34.2,6.1L71.5,277z"/>
		<g>
			<path class="st13" d="M156.2,621.6c0,0-4.2,1.8-2.2,15.8c2,14,11.7,15.6,18.8,15.1c7.1-0.6,16.9-6.6,13.6-25.4L156.2,621.6z"/>
			<path class="st14" d="M168,603c0,0-8.6-1.9-11,4.1c-2.4,5.9-7.8,19.1,0.3,32.4c8,13.3,29.4,10.3,29.1-11
				c-0.3-21.3-5.7-25.8-10.7-25.8L168,603z"/>
			<path class="st8" d="M160.7,595.1l1.4,10.3c0.3,1.9,1.7,3.5,3.6,3.9c2.1,0.5,5.2,0.6,8.8-0.7c1.7-0.6,2.8-2.3,2.6-4.1l-0.7-10.7
				L160.7,595.1z"/>
			<path class="st15" d="M170.3,631c-5.2,0.8-13.9,1.6-8.2,7.9c5.7,6.3,14.9,5.4,18.4-1.7C183.9,630,177.7,629.8,170.3,631z"/>
		</g>
		<g>
			<path class="st16" d="M163.8,573.9c0,0-11.1-1.1-11.3,5.6c-0.2,4.4,0.3,10.4,0.6,14.1c0.2,2,1.7,3.7,3.7,4
				c3.1,0.5,8,1.1,12.9,0.7c4.7-0.4,9.4-1.5,12.6-2.2c2.2-0.5,3.7-2.6,3.5-4.8l-0.7-11.4c-0.2-3.6-3.1-6.5-6.7-6.8
				C173.5,572.7,167.1,572.5,163.8,573.9z"/>
			<path class="st17" d="M164.2,576.6c0,0-8.3,1.1-7.9,2.9c0.4,1.8,3.3,5.9,12.9,4.9c9.5-1,14.2-2.4,13.6-4.9
				C182,577,173.6,575.4,164.2,576.6z"/>
			<path class="st18" d="M162.1,589.8c-0.1-0.6,0.1-1.2,0.6-1.7c0.4-0.5,1-0.7,1.6-0.7c2.8,0.1,7.6,0.1,11.5-0.9
				c0.6-0.2,1.3,0,1.8,0.4c0.5,0.4,0.8,1,0.8,1.7v4.7c0,1-0.7,1.8-1.6,2.1c-2.6,0.7-7.9,1.7-12.5,0.9c-0.9-0.2-1.7-0.9-1.8-1.9
				L162.1,589.8z"/>
		</g>
		<g>
			<path class="st19" d="M166.8,458.6c-10.4,3.8-20.8,8.4-20.8,8.4s13.6,82.9,13.7,112.4c0,1.3,0.9,2.4,2.1,2.6
				c2.9,0.7,8.4,1.4,13.9-0.4c1.6-0.5,2.8-2,2.9-3.7c0.9-14.3,5.5-84.8,6.2-124.7C183.9,453.5,170.5,457.2,166.8,458.6z"/>
			<g>
				<path class="st17" d="M177.5,466.1c-0.5,0-0.9-0.4-0.9-0.9l0-4.6c0-0.5,0.4-0.9,0.9-0.9c0,0,0,0,0,0c0.5,0,0.9,0.4,0.9,0.9
					l0,4.6C178.4,465.7,178,466.1,177.5,466.1C177.5,466.1,177.5,466.1,177.5,466.1z"/>
				<path class="st17" d="M176,565.8C176,565.8,176,565.8,176,565.8c-0.6,0-1-0.5-0.9-1c0.2-3.1,0.3-6.5,0.5-9.9
					c0-0.5,0.4-0.9,1-0.9c0.5,0,0.9,0.5,0.9,1c-0.1,3.5-0.3,6.8-0.5,10C176.9,565.4,176.5,565.8,176,565.8z M176.8,545.8
					C176.8,545.8,176.8,545.8,176.8,545.8c-0.5,0-0.9-0.4-0.9-1c0.1-3.3,0.2-6.6,0.3-10c0-0.5,0.4-0.9,1-0.9c0.5,0,0.9,0.4,0.9,1
					c-0.1,3.4-0.2,6.7-0.3,10C177.7,545.4,177.3,545.8,176.8,545.8z M178.2,525c0,0.5-0.4,0.9-0.9,0.9c0,0,0,0,0,0
					c-0.5,0-0.9-0.4-0.9-0.9c0.1-3.3,0.1-6.7,0.1-10c0-0.5,0.4-0.9,0.9-0.9c0.5,0,0.9,0.4,0.9,0.9
					C178.3,518.3,178.3,521.6,178.2,525z M177.5,505.9C177.5,505.9,177.5,505.9,177.5,505.9c-0.5,0-0.9-0.4-0.9-0.9
					c0-3.4,0-6.8,0.1-10c0-0.5,0.4-0.9,0.9-0.9h0c0.5,0,0.9,0.4,0.9,0.9c0,3.2,0,6.6-0.1,10C178.4,505.5,178,505.9,177.5,505.9z
					 M177.6,486c-0.5,0-0.9-0.4-0.9-0.9v-0.2c0-3.5,0-6.8,0-9.7c0-0.5,0.4-0.9,0.9-0.9h0c0.5,0,0.9,0.4,0.9,0.9c0,2.9,0,6.2,0,9.7
					v0.2C178.5,485.6,178.1,486,177.6,486z"/>
				<path class="st17" d="M174.8,580.3c0,0-0.1,0-0.1,0c-0.5-0.1-0.9-0.5-0.8-1c0.2-1.4,0.3-2.9,0.5-4.6c0-0.5,0.5-0.9,1-0.8
					c0.5,0,0.9,0.5,0.8,1c-0.2,1.7-0.3,3.2-0.5,4.6C175.7,579.9,175.3,580.3,174.8,580.3z"/>
			</g>
		</g>
		<g>
			<g>
				<path class="st14" d="M139.5,601.5l-10.2-0.1c0,0-6.4-5.3-15.6,4.7c-8.5,9.3-25.2,20.4-26.8,31.6c-0.3,1.8,0.7,3.6,2.4,4.3
					c3.3,1.5,10.5,2.9,24.3-1.1c18.6-5.3,28.5-9,33.2-12c1-0.7,1.7-1.8,1.7-3C148.6,619.8,148,601.6,139.5,601.5z"/>
				<path class="st13" d="M114,634c-15,3.9-22.5,1.7-25.8-0.3c-0.5,1.3-0.9,2.6-1.1,3.9c-0.3,1.8,0.7,3.6,2.4,4.3
					c3.3,1.5,10.5,2.9,24.3-1.1c18.6-5.3,28.5-9,33.2-12c1-0.7,1.7-1.8,1.7-3c0-1.1,0-2.7-0.1-4.5C145.3,623,133.6,629,114,634z"/>
				<path class="st8" d="M122.4,592l0.7,11.4c0.1,2.4,2,4.4,4.4,4.8c1.4,0.2,3.2,0.3,5.4,0.1c6.3-0.5,6.3-2.7,6.3-2.8c0,0,0,0,0,0
					l-0.4-15.1L122.4,592z"/>
				<path class="st15" d="M101.9,621.6c0,0-8.5,3.3-7.3,8.8c1.2,5.5,18,2.4,29.3-2.6S97.8,629.8,101.9,621.6z"/>
			</g>
			<g>
				<path class="st16" d="M126,572.6c0,0-12-0.7-11.9,4.8c0.1,5.6,1.7,16.8,5.1,17.7s20.5,2.1,23.6-2.5c3.2-4.6,3.9-19.4-2.5-20.7
					C133.9,570.7,126,572.6,126,572.6z"/>
				<path class="st17" d="M120.2,575.4c-0.8,0.2-1.4,0.9-1.5,1.7c-0.1,0.8,0.2,1.6,0.9,2.1c2,1.4,5.5,2.8,11.1,2.6
					c7.4-0.3,10.1-2.6,11-4c0.2-0.3,0.2-0.6,0.1-0.9c-0.1-0.3-0.4-0.5-0.7-0.6C138.1,575.3,128.6,572.9,120.2,575.4z"/>
				<path class="st18" d="M119.8,584.3c-0.1-0.4,0.1-0.9,0.4-1.2c0.3-0.3,0.8-0.4,1.2-0.2c2.4,1,6.6,2.1,11.2,1.1
					c0.2-0.1,0.5,0,0.7,0.2c0.2,0.2,0.3,0.4,0.3,0.6v7.2c0,1.1-0.9,2.1-2,2.2c-1.8,0.2-4.7,0.2-8-0.7c-1.3-0.4-2.3-1.4-2.6-2.8
					L119.8,584.3z"/>
			</g>
			<g>
				<path class="st19" d="M123.7,458.2c-9.7-3.1-15-4.3-16.8-3.9c2.3,16.5,5.3,36.4,7.4,48.1c3.8,20.1,6.5,64.3,7,73.4
					c0.1,1.1,0.8,2.1,1.8,2.5c2.6,1.1,8.2,2.5,15.4-0.1c1.1-0.4,1.9-1.4,1.9-2.6l1.7-108.3C142.2,467.4,129.5,460,123.7,458.2z"/>
				<path class="st20" d="M135.6,579.1c1-0.2,1.9-0.5,3-0.8c1.1-0.4,1.9-1.4,1.9-2.6l1.7-108.6l-7.4-1
					C137.2,481.9,135.9,563.1,135.6,579.1z"/>
			</g>
		</g>
		<g>
			<path class="st19" d="M184,426.7h-80.8c0,0,1.6,12.3,3.8,27.5c7.6,6.4,19.9,13.5,37,13c22.1-0.7,34.4-8,40.9-14.1
				C185,440,184.8,430.2,184,426.7z"/>
			<path class="st20" d="M144,455.4l-3.7-0.1c-2.7-0.1-4.8-2.3-4.8-5v-17.6l1.3,14.3c0.3,3.6,2.6,6.6,6,7.9L144,455.4z"/>
			<path class="st20" d="M129.8,464.8c0,0,13.5,3.5,23.1,0C152.9,464.8,145.3,472.6,129.8,464.8z"/>
		</g>
		<path class="st21" d="M106.3,265.6c0,0,5.7-20.4,37-22c31.3-1.6,55.8,8,40.3,22.5L106.3,265.6z"/>
		<g>
			<path class="st9" d="M109.1,412.9l1.6,16.6c0,0,9.5,6.6,26.3,6.9c16.8,0.3,35.2-8.8,35.2-8.8l-3-19.5
				C169.2,408.1,116.8,413.5,109.1,412.9z"/>
			<path class="st10" d="M101.6,270.5l11.9-7.5l65.6-4l10.5,8.9L164,355.2l1.4,54.8c0,0-10.5,8.8-29.8,8.1
				c-19.4-0.7-24.4-5.4-24.4-5.4v-82.4L101.6,270.5z"/>
			<path class="st8" d="M175.9,219.6l-0.7,32l14.4,11l-3.2,9.6l-50.3,24.6l-32.3-31.7c0,0,16.3-5.3,16.5-9.5c0.2-4.2-1-23-1-23
				L175.9,219.6z"/>
			<path class="st22" d="M175.2,249.8l0.7-30.2l-56.5,13.1c0,0,0.7,11,0.9,18C127.2,246.8,144.9,240.2,175.2,249.8z"/>
			<path class="st9" d="M114.2,260.9l20.9,28.7c1.2,1.6,3.3,2,5,1l48.1-28.6l-3.5,13.6l-45,25.4c-2.1,1.2-4.8,0.8-6.5-1l-29.1-33
				C104.1,267,104,265,114.2,260.9z"/>
		</g>
		<g>
			<path class="st12" d="M184.9,263.6l-28.6,55.1l-0.1,130.7c0,2.7,1.8,5,4.4,5.6c6.3,1.4,18.4,2.7,30.6-3.8c5.5-2.9,8.7-8.8,8.1-15
				c-2.3-25.4-8.4-99.1-4.3-125.4c0,0,0,0,0,0c1-17.2,3.2-32.7,4.7-42.2C194.2,263.9,188.9,261.9,184.9,263.6z"/>
			<path class="st23" d="M173.4,404c-0.6,0-1.1,0.3-1.5,0.8c-0.4,0.5-0.6,1-0.5,1.6l0.5,4.5c0.2,1.9,1.2,3.7,2.7,4.8
				c1.5,1.2,3.5,1.7,5.4,1.4l12-1.8c2-0.3,3.7-1.4,4.8-3c1.1-1.6,1.5-3.7,1-5.6l-0.6-2.5c-0.3-1-1.2-1.7-2.3-1.7L173.4,404z"/>
			<path class="st23" d="M175.4,242.1l-0.2,6.5c0,0,15.1,1.1,7.2,13.1c-7.9,12.1-13.7,22.4-19.4,32c-3.6,6.1-6.7,13.1-6.8,20.2V366
				c0,0,19.7-35.8,27.7-59.4c0.7-2.1-0.4-4.3-2.4-5.1l-4.7-1.7c-0.7-0.2-1.2-0.8-1.4-1.5c-0.2-0.7-0.1-1.4,0.3-2l20.6-31.7
				c1.8-2.7,1.7-6.2-0.2-8.8C192.4,251,185.5,243.8,175.4,242.1z"/>
		</g>
		<g>
			<path class="st12" d="M106.8,265.6l-6.9,2c0,0-0.2,0.2-0.5,0.4c-1,9.2-4.4,40-6,54.6c0.1-0.3-4.5,100.2-2.9,117.8
				c0,0-0.7,5.8,6,8.8c3.8,1.6,9.4,2.8,13.6,3.6c1.4,0.3,2.9-0.1,4-1.1c1.1-0.9,1.8-2.3,1.8-3.7l1.1-119.9L106.8,265.6z"/>
			<path class="st23" d="M88.5,396.6c0.1-0.7,0.4-1.3,1-1.7c0.6-0.4,1.3-0.5,2-0.4l12.3,2.9c0.9,0.2,1.6,1.1,1.4,2.1l-0.6,4.1
				c-0.4,2.6-1.8,4.9-3.9,6.4c-2.1,1.5-4.8,2-7.4,1.5l-3.4-0.7c-1.5-0.3-2.5-1.7-2.4-3.3L88.5,396.6z"/>
			<path class="st23" d="M120.1,246.6c0,0-11,3.7-20.1,12.7c-1.9,1.9-2.9,4.5-2.6,7.2c0.6,6.6,0.7,19.9,8.5,31
				c0.4,0.6,0.6,1.4,0.3,2.2c-0.3,0.7-0.9,1.3-1.6,1.5l-3.9,1.1c-1.7,0.5-2.8,2.1-2.5,3.9c1.9,10.9,8.9,47.7,18.5,59.9l1.5-47.6
				c0.2-5.7-0.3-11.4-1.4-17l-7.6-37.8c0,0,2.2-6.7,11.3-10L120.1,246.6z"/>
		</g>
		<g>
			<path class="st8" d="M69,121.2c0,0-10.3-6.1-16.7-3.2c-6.4,3,9.7,58.4,27,50.4C96.7,160.4,69,121.2,69,121.2z"/>
			<path class="st24" d="M87.2,57.3l-17,65.6c0,0-10.1-4.1-13.8-8c-3.7-3.9-9-12.5-7.7-22.1c0,0-5.6,9.7-0.4,18.3
				C48.3,111.2,17.6,67.9,87.2,57.3z"/>
			<path class="st7" d="M110.7,53.5c0,0-47.1,4.8-47.5,27.4c-0.5,22.6,3.6,9.5,3.1,50.4c0,0,0.1,16.2,9.5,33.5
				c9.3,17.3,10.9,29.8,12.7,35.9c1.8,6.1,13.1,36.9,48.7,29.4c35.7-7.5,51.8-14.5,59.5-57.8c7.7-43.3,10.7-31.2,8.9-45.5
				c-1.8-14.3-10.2-68.6-22.4-75.4C170.9,44.3,110.7,53.5,110.7,53.5z"/>
			<path class="st8" d="M183.1,51.2c-5.6-3.2-21.3-2.9-36.6-1.8c10.4,6.4,30.1,21.1,36.4,43.2c9.2,32.2,18.6,86.8-2.1,118.7
				c7.5-8.1,12.5-20.1,15.9-39.1c7.7-43.3,10.7-31.2,8.9-45.5C203.8,112.3,195.3,58.1,183.1,51.2z"/>
			<path class="st8" d="M121.8,180.6c0,0-14.5-4.5-15.2-11.7c-0.7-7.2,4.8-34.2,3.9-40.3c-0.9-6.1-10.2-9-21.7-9.7
				c-11.5-0.6-20.5,6.1-18.1,16.1c2.4,10,14.3,8.1,22,7s9.5-1.1,8.1,7.1C99.4,157.4,92.7,182.6,121.8,180.6z"/>
			<path class="st8" d="M135.9,108.1c0,0-10.5,5.2-8.2,17.7c2.3,12.5,13.7,4.9,22,4.2c8.3-0.6,18.7-1.5,19.3-7.2
				c0.6-5.7-0.6-16.4-12.8-17.5C144,104.2,139.4,105.6,135.9,108.1z"/>
			<g>
				<path class="st25" d="M194.7,115.2c0,0-0.3,36-23.5,59.4c0,0-6.1,6.4-12.8,5.2c-6.7-1.2-13.5-8.4-30.2-1.9c0,0-9.5,4.1-15.1,2.3
					c-5.6-1.7-10.1,2.3-10,9c0,6.7-4.5,6.8-8.5,5.9c-4-1-8.7-5-10.4-8c0,0,5.7,27.3,9.8,37.4c4.1,10.1,9.1,25.6,52.9,17.7
					c43.8-7.9,46.6-13.1,51.1-28c4.5-15,6.5-35.4,8.1-45.5c1.6-10.1,6.8-28.9,6.8-28.9s-10.3-21.9-10.7-33.8L194.7,115.2z"/>
				<path class="st24" d="M202.4,106l-4.2,5.1c2.1,13.8,7.6,58.4-1.9,84.7c-11.3,31.4-25.7,39.4-56.1,42.4
					c-26.9,2.7-37-0.1-44.6-10.3c4.3,9.7,12.5,21.2,51.5,14.2c43.8-7.9,46.6-13.1,51.1-28c4.5-15,6.5-35.4,8.1-45.5
					c1.6-10.1,6.8-28.9,6.8-28.9S202.8,117.9,202.4,106z"/>
			</g>
			<path class="st25" d="M72.1,128.6c0,0,3.1-7.6,9-7.5c5.9,0.1,12.5,3.7,13.9,1.2c1.4-2.5-7.8-12.3-18.3-6.8
				C66.5,121,69.6,127.1,72.1,128.6z"/>
			<path class="st25" d="M144.5,100c-9,1.5-15.5,6.9-17.6,12.6c-2.1,5.7,3.1,5.1,8.3,0.2c5.2-5,12.2-7.3,20.6-3.8
				c8.5,3.5,12.9,2.9,14.3-0.6C170.1,108.4,161.8,97.1,144.5,100z"/>
			<path class="st26" d="M109.9,126.8c0,0,1.5,7.4-0.3,14.1c-1.8,6.7-7.3,28.1-2.2,33.1c7.3,7.3,14.3,6.1,14.3,6.1
				s-11.5-4.4-11.4-13.2C110.3,158,114.2,134.5,109.9,126.8z"/>
			<path class="st27" d="M50.8,71.5c0.2-0.1,0.3-0.3,0.4-0.4l-0.5-0.6c-0.2,0.1-0.3,0.3-0.5,0.4L50.8,71.5z"/>
			<g>
				<path class="st28" d="M198.8,44.4l-21.6,14.9c0,0,13-1.5,17.6,56l6.4-5.5l8-23.9C209.1,85.9,207.7,46.8,198.8,44.4z"/>
				<path class="st25" d="M200.1,45.1l-21.5,14.6c0,0-15.2,7.5-37.7,9.6c-22.5,2.1-75.8-25.7-93,11.2c0,0-1-6.8,3.5-10
					c0,0-19.5,14.5-3.1,40.7c0,0-22.4-19.4-3.8-59.9c0,0-11.3,11-12.5,23c0,0,0.7-43.8,47.5-61C126.4-4,196.6-12.4,200.1,45.1z"/>
				<path class="st24" d="M166.2,3c10.4,5.2,22.9,14.8,26.5,31.8c0,0-16.1-30.7-44.9-26.2c0,0,29.5,5.5,38.7,31.5
					c0,0-34.8-28.6-74.1-14c0,0,38.8-9.3,67.4,19.4c0,0-21,13.5-38,9.8C117.4,50,61.2,43.1,49,72.8c0.6-0.7,1.2-1.2,1.6-1.6
					c0.1-0.1,0.3-0.3,0.4-0.4c0.3-0.3,0.5-0.4,0.5-0.4c-0.2,0.1-0.3,0.3-0.5,0.4c-0.1,0.1-0.3,0.2-0.4,0.4c-3.5,3.4-2.6,9.2-2.6,9.2
					c17.2-36.9,70.5-9,93-11.2c22.5-2.1,37.7-9.6,37.7-9.6l21.5-14.6C198.6,20.5,185,8,166.2,3z"/>
			</g>
			<g>
				<path class="st29" d="M148.8,121.1c-3.8,0.8-8.8,5.8-8.1,9.8c0.7,4,5.9,1.9,11.2,1.6c5.3-0.4,8.8-2.1,9.1-6.5
					C161.2,121.6,154.8,119.9,148.8,121.1z"/>
				<g>
					<path class="st30" d="M156.2,128.6c0.5,3-1.5,5.8-4.5,6.3c-3,0.5-5.8-1.5-6.3-4.5c-0.5-3,1.5-5.8,4.5-6.3
						C152.8,123.6,155.7,125.6,156.2,128.6z"/>
					<path class="st29" d="M153.8,127.9c0.2,1-0.5,1.9-1.5,2.1c-1,0.2-1.9-0.5-2.1-1.5c-0.2-1,0.5-1.9,1.5-2.1
						C152.7,126.2,153.6,126.9,153.8,127.9z"/>
				</g>
			</g>
			<g>
				<path class="st29" d="M87.3,132.9c-2.8,0.1-9.2,1.4-8.4,7.7c0.7,6.3,11.7,5.6,15.1,2.3C97.3,139.5,97.2,132.7,87.3,132.9z"/>
				<g>
					<path class="st30" d="M94.2,140.2c0.5,3-1.5,5.8-4.5,6.3c-3,0.5-5.8-1.5-6.3-4.5c-0.5-3,1.5-5.8,4.5-6.3
						C90.9,135.2,93.7,137.2,94.2,140.2z"/>
					<path class="st29" d="M91.8,139.5c0.2,1-0.5,1.9-1.5,2.1c-1,0.2-1.9-0.5-2.1-1.5c-0.2-1,0.5-1.9,1.5-2.1
						C90.7,137.9,91.6,138.5,91.8,139.5z"/>
				</g>
			</g>
			<g>
				<path class="st7" d="M201.6,117.6c0,0,0.2-11.1,2.5-19.4c2.3-8.3,7-10.5,13.6-10.2c6.6,0.3,8.9,12.4,5.6,23.4
					c-3.3,11,7.3,28.3-3.7,34C208.5,151.1,203.6,137.8,201.6,117.6z"/>
				<path class="st26" d="M211.3,134.8c0,0-5.8-17.3,0.4-19c6.2-1.6,7.3,3.3,3.2,8.2c0,0,0.2-7.7-2.8-6.2
					C209,119.5,211.3,134.8,211.3,134.8z"/>
			</g>
			<g>
				<path class="st26" d="M111,198.3c0,0,21.7,4,31.4-7c0.6-0.6,0.8-1.5,0.5-2.4l-1.2-3.6c0-0.1,0-0.1,0.1-0.2s0.1,0,0.2,0l6,9
					c0.1,0.1,0.1,0.3,0,0.5c-0.1,0.1-0.3,0.2-0.4,0.2l-1.4-0.3c-0.5-0.1-1.1,0-1.5,0.4C142,197.4,131.8,205.4,111,198.3z"/>
				<path class="st26" d="M118,208.8c0,0,7.6,2.7,13.5-0.6C131.5,208.2,127,216.7,118,208.8z"/>
			</g>
		</g>
		<g>
			<g>
				<g>
					<path class="st7" d="M113.5,354.7c0,0,2.3-0.8,2.3-3.6c-0.1-2.8-2.2-2.6-2.2-2.6s2.2-0.4,2.6-3.5c0.3-3.2-5-3.7-8.1-3.7
						c0,0-4.3-5.4-9.6-4.4c-1.8,0.3-3.6,1.1-5.3,1.9c-0.4,0-0.8,0.1-1.3,0.3c-3.8,1.1-6,2.3-6,2.3c-6,1.3-11.9-0.4-11.9-0.4
						L71.8,357c0,0,7.9,0,12.8,3.6c4.9,3.6,10.8,6.4,17.8,5.1c0,0,2.5,0.3,4.4-0.7c0.5,0,1-0.1,1.6-0.2c0.5,0,1-0.1,1.6-0.1
						c0,0,2.5-0.2,2.1-3.8c0,0,2.5-0.7,2.8-3.5C115.2,354.5,113.5,354.7,113.5,354.7z"/>
					<path class="st8" d="M113.2,342.8c0,0,1.7,4.1-1.1,5.4c0,0,2,3.3-0.8,6.3c0,0,2.9,2.8-0.8,5.9c0,0,0.4,2.8-1.8,3.4
						c0,0,2.6,1.3,3.1-2.6c0,0,2-0.9,2.4-3.8c0,0-0.4-2.2-1.5-2.7c0,0,2.1-0.1,2.3-3.3c0.2-3.2-1.9-3-1.9-3s2.1,0,2.4-3.1
						C115.7,342.3,113.2,342.8,113.2,342.8z"/>
					<path class="st8" d="M106.5,340.9c0,0-4.9,0.1-6.9-0.9c0,0,2.9,0.4,2.8-1.7C102.4,336.3,105.4,339.1,106.5,340.9z"/>
				</g>
				<g>
					<path class="st9" d="M63.9,357.1l12.2,1.8c1.1,0.2,2.1-0.6,2.3-1.7l2.7-16.5c0.1-0.6-0.1-1.2-0.4-1.7c-0.4-0.5-0.9-0.8-1.5-0.9
						l-13.1-1.4L63.9,357.1z"/>
					<path class="st10" d="M65,356.1l9.5,1.4c0.9,0.1,1.7-0.3,1.8-1l1.8-10.3c0.1-0.4-0.1-0.8-0.4-1.1c-0.3-0.3-0.7-0.5-1.2-0.6
						l-10.2-1.1L65,356.1z"/>
				</g>
			</g>
			<path class="st12" d="M98.2,275.7c0,0,0.7-5-22.6,0.4c-31.3,7.3-81.6,22.2-75,48.4c5.8,22.9,20.5,28.8,62.5,35.6
				c0,0,1.9-2.8,4.7-14.8c2-8.6,0.6-12.1,0.6-12.1l-28.7-9.3l57.6-17.5C97.3,306.3,99.2,297,98.2,275.7z"/>
		</g>
		<g>
			<path class="st31" d="M66.1,359.8l10.9,2.6c0.5,0.1,1.1-0.2,1.2-0.7l5.8-24.1c0.1-0.5-0.2-1.1-0.7-1.2l-10.9-2.6
				c-0.5-0.1-1.1,0.2-1.2,0.7l-5.8,24.1C65.3,359.2,65.6,359.7,66.1,359.8z"/>
			<g>
				<g>
					
						<ellipse transform="matrix(0.9654 -0.2607 0.2607 0.9654 -88.0117 31.5621)" class="st32" cx="75" cy="347.6" rx="9.1" ry="9.1"/>
					<path class="st33" d="M71.5,353.7c-3.4-1.9-4.5-6.2-2.6-9.6c1.9-3.4,6.2-4.5,9.6-2.6c3.4,1.9,4.5,6.2,2.6,9.6
						C79.2,354.5,74.8,355.6,71.5,353.7z"/>
				</g>
				<g>
					<path class="st32" d="M75,347.9c-0.2,0-0.3-0.2-0.3-0.4c0-0.2,0.2-0.3,0.4-0.3l4.4,1.1c0.2,0,0.3,0.2,0.3,0.4
						c0,0.2-0.2,0.3-0.4,0.3L75,347.9z"/>
					<path class="st32" d="M74.8,347.4c0-0.1,0.2-0.2,0.4-0.2c0.2,0,0.3,0.2,0.3,0.3l-0.8,3.5c0,0.1-0.2,0.2-0.4,0.2
						c-0.2,0-0.3-0.2-0.3-0.3L74.8,347.4z"/>
				</g>
			</g>
		</g>
	</g>
</g>
</svg>
