<?xml version="1.0" encoding="utf-8"?>
<!-- Generator: Adobe Illustrator 22.0.1, SVG Export Plug-In . SVG Version: 6.00 Build 0)  -->
<svg version="1.1" id="Слой_1" xmlns="http://www.w3.org/2000/svg" xmlns:xlink="http://www.w3.org/1999/xlink" x="0px" y="0px"
	 viewBox="0 0 1200 690" style="enable-background:new 0 0 1200 690;" xml:space="preserve">
<style type="text/css">
	.st0{fill:#D0D0D0;}
	.st1{fill:url(#SVGID_1_);}
	.st2{fill:url(#SVGID_2_);}
	.st3{fill:url(#SVGID_3_);}
	.st4{fill:#808080;}
	.st5{fill:#E6E6E6;}
	.st6{fill:#FFFFFF;}
	.st7{fill:#DBDBDB;}
	.st8{fill:#D34539;}
	.st9{fill:#862BAC;}
</style>
<g>
	<g>
		<path class="st0" d="M1047.4,4.2H153.3c-19.8,0-35.8,16-35.8,35.8v609.4c0,10.1,8.2,18.4,18.4,18.4h926c11.4,0,20.7-9.3,20.7-20.7
			V39.2C1082.4,19.9,1066.8,4.2,1047.4,4.2z"/>
		<linearGradient id="SVGID_1_" gradientUnits="userSpaceOnUse" x1="8.9277" y1="663.0172" x2="1191.0723" y2="663.0172">
			<stop  offset="0" style="stop-color:#B3B3B3"/>
			<stop  offset="2.564090e-02" style="stop-color:#FBFBFB"/>
			<stop  offset="0.347" style="stop-color:#F3F3F3"/>
			<stop  offset="0.7299" style="stop-color:#F2F2F2"/>
			<stop  offset="0.9726" style="stop-color:#FFFFFF"/>
			<stop  offset="1" style="stop-color:#B3B3B3"/>
		</linearGradient>
		<rect x="8.9" y="659.6" class="st1" width="1182.1" height="6.9"/>
		<linearGradient id="SVGID_2_" gradientUnits="userSpaceOnUse" x1="600" y1="683.7792" x2="600" y2="666.4755">
			<stop  offset="0" style="stop-color:#4D4D4D"/>
			<stop  offset="1.158190e-02" style="stop-color:#535353"/>
			<stop  offset="9.173602e-02" style="stop-color:#767676"/>
			<stop  offset="0.1799" style="stop-color:#949494"/>
			<stop  offset="0.2765" style="stop-color:#ACACAC"/>
			<stop  offset="0.385" style="stop-color:#BFBFBF"/>
			<stop  offset="0.5121" style="stop-color:#CCCCCC"/>
			<stop  offset="0.6752" style="stop-color:#D4D4D4"/>
			<stop  offset="1" style="stop-color:#D6D6D6"/>
		</linearGradient>
		<path class="st2" d="M8.9,666.5c0,0,28.2,16.7,177.1,16.9l824.4,0.4c0,0,135.6,2,180.6-17.2H8.9z"/>
		<linearGradient id="SVGID_3_" gradientUnits="userSpaceOnUse" x1="487.7029" y1="664.3381" x2="712.6813" y2="664.3381">
			<stop  offset="0" style="stop-color:#B3B3B3"/>
			<stop  offset="2.564090e-02" style="stop-color:#FBFBFB"/>
			<stop  offset="0.347" style="stop-color:#F3F3F3"/>
			<stop  offset="0.7299" style="stop-color:#F2F2F2"/>
			<stop  offset="0.9726" style="stop-color:#FFFFFF"/>
			<stop  offset="1" style="stop-color:#B3B3B3"/>
		</linearGradient>
		<path class="st3" d="M707.8,669.1H492.6c-2.7,0-4.9-2.2-4.9-4.9v-4.7h225v4.7C712.7,666.9,710.5,669.1,707.8,669.1z"/>
		<rect x="449.9" y="675" class="st4" width="8.1" height="3.7"/>
		<rect x="740.3" y="675" class="st4" width="8.1" height="3.7"/>
		<path class="st5" d="M1047.3,7.5h-896c-17.1,0-30.9,13.8-30.9,30.9v611.1c0,10.1,8.2,18.3,18.3,18.3h919.1
			c11.3,0,20.5-9.2,20.5-20.5V38.5C1078.2,21.4,1064.4,7.5,1047.3,7.5z"/>
		<path class="st6" d="M1048,13.2H150.7c-14.1,0-25.5,11.4-25.5,25.5v595h948.3v-595C1073.5,24.6,1062.1,13.2,1048,13.2z"/>
	</g>
	<g>
		<rect x="178.8" y="84.9" class="st7" width="1.2" height="449"/>
		<g>
			<rect x="263" y="84.9" class="st7" width="1.2" height="449"/>
			<rect x="348.3" y="84.9" class="st7" width="1.2" height="449"/>
			<rect x="433.6" y="84.9" class="st7" width="1.2" height="449"/>
			<rect x="519" y="84.9" class="st7" width="1.2" height="449"/>
			<rect x="604.3" y="84.9" class="st7" width="1.2" height="449"/>
			<rect x="689.6" y="84.9" class="st7" width="1.2" height="449"/>
			<rect x="775" y="84.9" class="st7" width="1.2" height="449"/>
			<rect x="860.3" y="84.9" class="st7" width="1.2" height="449"/>
			<rect x="945.7" y="84.9" class="st7" width="1.2" height="449"/>
			<rect x="1031" y="84.9" class="st7" width="1.2" height="449"/>
		</g>
	</g>
	<g>
		
			<rect x="604.9" y="81.9" transform="matrix(8.564355e-11 -1 1 8.564355e-11 85.0264 1125.9753)" class="st7" width="1.2" height="877.2"/>
		
			<rect x="604.9" y="39.7" transform="matrix(8.564355e-11 -1 1 8.564355e-11 127.2495 1083.7523)" class="st7" width="1.2" height="877.2"/>
		
			<rect x="604.9" y="-2.6" transform="matrix(8.564355e-11 -1 1 8.564355e-11 169.4725 1041.5293)" class="st7" width="1.2" height="877.2"/>
		
			<rect x="604.9" y="-44.8" transform="matrix(8.564355e-11 -1 1 8.564355e-11 211.6955 999.3062)" class="st7" width="1.2" height="877.2"/>
		
			<rect x="604.9" y="-87" transform="matrix(8.564355e-11 -1 1 8.564355e-11 253.9186 957.0832)" class="st7" width="1.2" height="877.2"/>
		
			<rect x="604.9" y="-129.2" transform="matrix(8.564355e-11 -1 1 8.564355e-11 296.1416 914.8602)" class="st7" width="1.2" height="877.2"/>
		
			<rect x="604.9" y="-171.4" transform="matrix(8.564355e-11 -1 1 8.564355e-11 338.3647 872.6371)" class="st7" width="1.2" height="877.2"/>
		
			<rect x="604.9" y="-213.7" transform="matrix(8.564355e-11 -1 1 8.564355e-11 380.5877 830.4141)" class="st7" width="1.2" height="877.2"/>
		
			<rect x="604.9" y="-255.9" transform="matrix(8.564355e-11 -1 1 8.564355e-11 422.8107 788.191)" class="st7" width="1.2" height="877.2"/>
		
			<rect x="604.9" y="-298.1" transform="matrix(8.564355e-11 -1 1 8.564355e-11 465.0338 745.968)" class="st7" width="1.2" height="877.2"/>
		
			<rect x="604.9" y="-340.3" transform="matrix(8.564355e-11 -1 1 8.564355e-11 507.2568 703.7449)" class="st7" width="1.2" height="877.2"/>
	</g>
	<g>
		<path class="st8" d="M982.1,212.9c-60.1,22-89.2,21.4-89.2,21.4c-85,0-212.3-72-212.3-72c-38.9-21.3-70.4-33.3-94.8-40l0,0l0,0
			c-4.9-1.3-9.4-2.5-13.7-3.4c-23-4-70.1-4.7-103.8,44.3c-2.6,4-5.3,8.2-7.8,12.8c-0.2,0.4-0.4,0.8-0.6,1.1c-9.9,18-19,41-26,70.8
			c-22.6,96.3-49.4,149.9-49.4,149.9c-32.7,74.9-91,91.6-91,91.6C212,510.8,181,521.5,181,521.5v6.7c0,0,30.9-10.7,112.4-32.1
			c0,0,49.6-14.2,83-75.2v0c0,0,0,0,0,0c1.4-2.6,2.8-5.2,4.1-8c39.5-77.7,51.7-140.5,51.7-140.5c13.5-67.4,34.4-100.1,35.9-102.3
			c0,0,0.1-0.1,0.1-0.1c33.7-49,80.8-48.3,103.8-44.3c4.3,0.9,8.9,2.1,13.7,3.4l0,0l0,0c24.4,6.7,55.9,18.7,94.8,40
			c0,0,127.3,72,212.3,72c0,0,29.1,0.6,89.2-21.4l52.9-14.9V198L982.1,212.9z"/>
		<g>
			<circle class="st8" cx="1032.2" cy="202.1" r="9.2"/>
			<circle class="st6" cx="1032.2" cy="202.1" r="4.9"/>
		</g>
		<g>
			<circle class="st8" cx="858.2" cy="233.5" r="9.2"/>
			<circle class="st6" cx="858.2" cy="233.5" r="4.9"/>
		</g>
		<g>
			<circle class="st8" cx="520.2" cy="125.9" r="9.2"/>
			<circle class="st6" cx="520.2" cy="125.9" r="4.9"/>
		</g>
		<g>
			<circle class="st8" cx="178.8" cy="524.7" r="9.2"/>
			<circle class="st6" cx="178.8" cy="524.7" r="4.9"/>
		</g>
		<path class="st8" d="M513.1,131.8c0,0-32.7,4.9-63.9,84.9l-9.5,31.8c0,0-8.9,41-16.7,64.8c0,0-29.5,97.1-58.3,126.2l2.4-7.8
			c0,0,34-58,43.7-95.7l16.7-53.2l9.8-43.1l10.4-32.1l7.6-19.3l10.9-19.2l15.5-20.4l19-14.9C500.7,133.8,513.2,125.1,513.1,131.8z"
			/>
		<path class="st8" d="M302.6,492.5c0,0,51.3-24,62.2-53h-5c0,0-12.1,27.3-59.6,49.5L302.6,492.5z"/>
		<g>
			<circle class="st8" cx="349.5" cy="456.3" r="9.2"/>
			<circle class="st6" cx="349.5" cy="456.3" r="4.9"/>
		</g>
		<path class="st8" d="M357.6,452c0,0,23.6-35.4,24.1-36.4s-27.3,34.5-27.3,34.5L357.6,452z"/>
	</g>
	<path class="st9" d="M1030.4,117.5c-78.8,52.2-172.1,82-172.1,82c-66.5,26.8-204.7,48.6-204.7,48.6
		C497.3,277.5,416.1,329,416.1,329L176.3,448.7v7.6l239.8-119.7c0,0,81.2-51.6,237.4-80.9c0,0,138.2-21.9,204.7-48.6
		c0,0,94.1-30.1,173.1-82.7C1031,122.1,1030.6,119.8,1030.4,117.5z"/>
	<g>
		<circle class="st9" cx="178.8" cy="451.1" r="9.2"/>
		<circle class="st6" cx="178.8" cy="451.1" r="4.9"/>
	</g>
	<g>
		<circle class="st9" cx="348.3" cy="367.2" r="9.2"/>
		<circle class="st6" cx="348.3" cy="367.2" r="4.9"/>
	</g>
	<g>
		<circle class="st9" cx="517.1" cy="286.8" r="9.2"/>
		<circle class="st6" cx="517.1" cy="286.8" r="4.9"/>
	</g>
	<g>
		<circle class="st9" cx="860.9" cy="202.1" r="9.2"/>
		<circle class="st6" cx="860.9" cy="202.1" r="4.9"/>
	</g>
	<g>
		<circle class="st9" cx="1031.6" cy="118.9" r="9.2"/>
		<circle class="st6" cx="1031.6" cy="118.9" r="4.9"/>
	</g>
</g>
</svg>
